<?xml version="1.0" encoding="utf-8" standalone="no"?>
<!DOCTYPE svg PUBLIC "-//W3C//DTD SVG 1.1//EN"
  "http://www.w3.org/Graphics/SVG/1.1/DTD/svg11.dtd">
<svg xmlns:xlink="http://www.w3.org/1999/xlink" width="611.600625pt" height="404.598281pt" viewBox="0 0 611.600625 404.598281" xmlns="http://www.w3.org/2000/svg" version="1.1">
 <metadata>
  <rdf:RDF xmlns:dc="http://purl.org/dc/elements/1.1/" xmlns:cc="http://creativecommons.org/ns#" xmlns:rdf="http://www.w3.org/1999/02/22-rdf-syntax-ns#">
   <cc:Work>
    <dc:type rdf:resource="http://purl.org/dc/dcmitype/StillImage"/>
    <dc:date>2026-04-26T02:54:45.647145</dc:date>
    <dc:format>image/svg+xml</dc:format>
    <dc:creator>
     <cc:Agent>
      <dc:title>Matplotlib v3.10.9, https://matplotlib.org/</dc:title>
     </cc:Agent>
    </dc:creator>
   </cc:Work>
  </rdf:RDF>
 </metadata>
 <defs>
  <style type="text/css">*{stroke-linejoin: round; stroke-linecap: butt}</style>
 </defs>
 <g id="figure_1">
  <g id="patch_1">
   <path d="M 0 404.598281 
L 611.600625 404.598281 
L 611.600625 0 
L 0 0 
z
" style="fill: #0a0e1a"/>
  </g>
  <g id="axes_1">
   <g id="patch_2">
    <path d="M 43.880625 354.198281 
L 546.080625 354.198281 
L 546.080625 21.558281 
L 43.880625 21.558281 
z
" style="fill: #0a0e1a"/>
   </g>
   <g id="patch_3">
    <path d="M 43.880625 354.198281 
L 326.308793 354.198281 
L 326.308793 21.558281 
L 43.880625 21.558281 
z
" clip-path="url(#p47c8944978)" style="fill: url(#hac78c29c5a); opacity: 0.07; stroke: #2ecc71; stroke-linejoin: miter"/>
   </g>
   <g id="matplotlib.axis_1">
    <g id="xtick_1">
     <g id="line2d_1">
      <path d="M 43.880625 354.198281 
L 43.880625 21.558281 
" clip-path="url(#p47c8944978)" style="fill: none; stroke-dasharray: 0.8,1.32; stroke-dashoffset: 0; stroke: #6d7380; stroke-opacity: 0.25; stroke-width: 0.8"/>
     </g>
     <g id="line2d_2">
      <defs>
       <path id="m4aef223b96" d="M 0 0 
L 0 3.5 
" style="stroke: #f0e6d2; stroke-width: 0.8"/>
      </defs>
      <g>
       <use xlink:href="#m4aef223b96" x="43.880625" y="354.198281" style="fill: #f0e6d2; stroke: #f0e6d2; stroke-width: 0.8"/>
      </g>
     </g>
     <g id="text_1">
      <!-- $\mathdefault{10^{2}}$ -->
      <g style="fill: #f0e6d2" transform="translate(37.200625 367.319531) scale(0.08 -0.08)">
       <defs>
        <path id="DejaVuSansMono-31" d="M 844 531 
L 1825 531 
L 1825 4097 
L 769 3859 
L 769 4434 
L 1819 4666 
L 2450 4666 
L 2450 531 
L 3419 531 
L 3419 0 
L 844 0 
L 844 531 
z
" transform="scale(0.015625)"/>
        <path id="DejaVuSansMono-30" d="M 1509 2344 
Q 1509 2516 1629 2641 
Q 1750 2766 1919 2766 
Q 2094 2766 2219 2641 
Q 2344 2516 2344 2344 
Q 2344 2169 2220 2047 
Q 2097 1925 1919 1925 
Q 1744 1925 1626 2044 
Q 1509 2163 1509 2344 
z
M 1925 4250 
Q 1484 4250 1267 3775 
Q 1050 3300 1050 2328 
Q 1050 1359 1267 884 
Q 1484 409 1925 409 
Q 2369 409 2586 884 
Q 2803 1359 2803 2328 
Q 2803 3300 2586 3775 
Q 2369 4250 1925 4250 
z
M 1925 4750 
Q 2672 4750 3055 4137 
Q 3438 3525 3438 2328 
Q 3438 1134 3055 521 
Q 2672 -91 1925 -91 
Q 1178 -91 797 521 
Q 416 1134 416 2328 
Q 416 3525 797 4137 
Q 1178 4750 1925 4750 
z
" transform="scale(0.015625)"/>
        <path id="DejaVuSansMono-32" d="M 1166 531 
L 3309 531 
L 3309 0 
L 475 0 
L 475 531 
Q 1059 1147 1496 1619 
Q 1934 2091 2100 2284 
Q 2413 2666 2522 2902 
Q 2631 3138 2631 3384 
Q 2631 3775 2401 3997 
Q 2172 4219 1772 4219 
Q 1488 4219 1175 4116 
Q 863 4013 513 3803 
L 513 4441 
Q 834 4594 1145 4672 
Q 1456 4750 1759 4750 
Q 2444 4750 2861 4386 
Q 3278 4022 3278 3431 
Q 3278 3131 3139 2831 
Q 3000 2531 2688 2169 
Q 2513 1966 2180 1606 
Q 1847 1247 1166 531 
z
" transform="scale(0.015625)"/>
       </defs>
       <use xlink:href="#DejaVuSansMono-31" transform="translate(0 0.765625)"/>
       <use xlink:href="#DejaVuSansMono-30" transform="translate(60.205078 0.765625)"/>
       <use xlink:href="#DejaVuSansMono-32" transform="translate(121.367188 39.046875) scale(0.7)"/>
      </g>
     </g>
    </g>
    <g id="xtick_2">
     <g id="line2d_3">
      <path d="M 326.308793 354.198281 
L 326.308793 21.558281 
" clip-path="url(#p47c8944978)" style="fill: none; stroke-dasharray: 0.8,1.32; stroke-dashoffset: 0; stroke: #6d7380; stroke-opacity: 0.25; stroke-width: 0.8"/>
     </g>
     <g id="line2d_4">
      <g>
       <use xlink:href="#m4aef223b96" x="326.308793" y="354.198281" style="fill: #f0e6d2; stroke: #f0e6d2; stroke-width: 0.8"/>
      </g>
     </g>
     <g id="text_2">
      <!-- $\mathdefault{10^{3}}$ -->
      <g style="fill: #f0e6d2" transform="translate(319.628793 367.319531) scale(0.08 -0.08)">
       <defs>
        <path id="DejaVuSansMono-33" d="M 2425 2497 
Q 2884 2375 3128 2064 
Q 3372 1753 3372 1288 
Q 3372 644 2939 276 
Q 2506 -91 1741 -91 
Q 1419 -91 1084 -31 
Q 750 28 428 141 
L 428 769 
Q 747 603 1056 522 
Q 1366 441 1672 441 
Q 2191 441 2469 675 
Q 2747 909 2747 1350 
Q 2747 1756 2469 1995 
Q 2191 2234 1716 2234 
L 1234 2234 
L 1234 2753 
L 1716 2753 
Q 2150 2753 2394 2943 
Q 2638 3134 2638 3475 
Q 2638 3834 2411 4026 
Q 2184 4219 1766 4219 
Q 1488 4219 1191 4156 
Q 894 4094 569 3969 
L 569 4550 
Q 947 4650 1242 4700 
Q 1538 4750 1766 4750 
Q 2447 4750 2855 4408 
Q 3263 4066 3263 3500 
Q 3263 3116 3048 2859 
Q 2834 2603 2425 2497 
z
" transform="scale(0.015625)"/>
       </defs>
       <use xlink:href="#DejaVuSansMono-31" transform="translate(0 0.765625)"/>
       <use xlink:href="#DejaVuSansMono-30" transform="translate(60.205078 0.765625)"/>
       <use xlink:href="#DejaVuSansMono-33" transform="translate(121.367188 39.046875) scale(0.7)"/>
      </g>
     </g>
    </g>
    <g id="xtick_3">
     <g id="line2d_5">
      <defs>
       <path id="m2323f3727b" d="M 0 0 
L 0 2 
" style="stroke: #f0e6d2; stroke-width: 0.6"/>
      </defs>
      <g>
       <use xlink:href="#m2323f3727b" x="128.899975" y="354.198281" style="fill: #f0e6d2; stroke: #f0e6d2; stroke-width: 0.6"/>
      </g>
     </g>
    </g>
    <g id="xtick_4">
     <g id="line2d_6">
      <g>
       <use xlink:href="#m2323f3727b" x="178.633107" y="354.198281" style="fill: #f0e6d2; stroke: #f0e6d2; stroke-width: 0.6"/>
      </g>
     </g>
    </g>
    <g id="xtick_5">
     <g id="line2d_7">
      <g>
       <use xlink:href="#m2323f3727b" x="213.919325" y="354.198281" style="fill: #f0e6d2; stroke: #f0e6d2; stroke-width: 0.6"/>
      </g>
     </g>
    </g>
    <g id="xtick_6">
     <g id="line2d_8">
      <g>
       <use xlink:href="#m2323f3727b" x="241.289443" y="354.198281" style="fill: #f0e6d2; stroke: #f0e6d2; stroke-width: 0.6"/>
      </g>
     </g>
    </g>
    <g id="xtick_7">
     <g id="line2d_9">
      <g>
       <use xlink:href="#m2323f3727b" x="263.652457" y="354.198281" style="fill: #f0e6d2; stroke: #f0e6d2; stroke-width: 0.6"/>
      </g>
     </g>
    </g>
    <g id="xtick_8">
     <g id="line2d_10">
      <g>
       <use xlink:href="#m2323f3727b" x="282.560116" y="354.198281" style="fill: #f0e6d2; stroke: #f0e6d2; stroke-width: 0.6"/>
      </g>
     </g>
    </g>
    <g id="xtick_9">
     <g id="line2d_11">
      <g>
       <use xlink:href="#m2323f3727b" x="298.938676" y="354.198281" style="fill: #f0e6d2; stroke: #f0e6d2; stroke-width: 0.6"/>
      </g>
     </g>
    </g>
    <g id="xtick_10">
     <g id="line2d_12">
      <g>
       <use xlink:href="#m2323f3727b" x="313.385589" y="354.198281" style="fill: #f0e6d2; stroke: #f0e6d2; stroke-width: 0.6"/>
      </g>
     </g>
    </g>
    <g id="xtick_11">
     <g id="line2d_13">
      <g>
       <use xlink:href="#m2323f3727b" x="411.328143" y="354.198281" style="fill: #f0e6d2; stroke: #f0e6d2; stroke-width: 0.6"/>
      </g>
     </g>
    </g>
    <g id="xtick_12">
     <g id="line2d_14">
      <g>
       <use xlink:href="#m2323f3727b" x="461.061275" y="354.198281" style="fill: #f0e6d2; stroke: #f0e6d2; stroke-width: 0.6"/>
      </g>
     </g>
    </g>
    <g id="xtick_13">
     <g id="line2d_15">
      <g>
       <use xlink:href="#m2323f3727b" x="496.347493" y="354.198281" style="fill: #f0e6d2; stroke: #f0e6d2; stroke-width: 0.6"/>
      </g>
     </g>
    </g>
    <g id="xtick_14">
     <g id="line2d_16">
      <g>
       <use xlink:href="#m2323f3727b" x="523.717611" y="354.198281" style="fill: #f0e6d2; stroke: #f0e6d2; stroke-width: 0.6"/>
      </g>
     </g>
    </g>
    <g id="xtick_15">
     <g id="line2d_17">
      <g>
       <use xlink:href="#m2323f3727b" x="546.080625" y="354.198281" style="fill: #f0e6d2; stroke: #f0e6d2; stroke-width: 0.6"/>
      </g>
     </g>
    </g>
    <g id="text_3">
     <!-- HULL TEMPERATURE  T  (K) -->
     <g style="fill: #f0e6d2" transform="translate(229.96125 379.869687) scale(0.09 -0.09)">
      <defs>
       <path id="DejaVuSansMono-48" d="M 428 4666 
L 1063 4666 
L 1063 2753 
L 2791 2753 
L 2791 4666 
L 3425 4666 
L 3425 0 
L 2791 0 
L 2791 2222 
L 1063 2222 
L 1063 0 
L 428 0 
L 428 4666 
z
" transform="scale(0.015625)"/>
       <path id="DejaVuSansMono-55" d="M 459 1791 
L 459 4666 
L 1094 4666 
L 1094 1503 
Q 1094 1163 1112 1017 
Q 1131 872 1178 794 
Q 1278 609 1467 515 
Q 1656 422 1925 422 
Q 2197 422 2384 515 
Q 2572 609 2675 794 
Q 2722 872 2740 1015 
Q 2759 1159 2759 1497 
L 2759 4666 
L 3391 4666 
L 3391 1791 
Q 3391 1075 3302 773 
Q 3213 472 2994 275 
Q 2788 91 2522 0 
Q 2256 -91 1925 -91 
Q 1597 -91 1331 0 
Q 1066 91 856 275 
Q 641 469 550 776 
Q 459 1084 459 1791 
z
" transform="scale(0.015625)"/>
       <path id="DejaVuSansMono-4c" d="M 672 4666 
L 1306 4666 
L 1306 531 
L 3559 531 
L 3559 0 
L 672 0 
L 672 4666 
z
" transform="scale(0.015625)"/>
       <path id="DejaVuSansMono-20" transform="scale(0.015625)"/>
       <path id="DejaVuSansMono-54" d="M 147 4666 
L 3706 4666 
L 3706 4134 
L 2247 4134 
L 2247 0 
L 1613 0 
L 1613 4134 
L 147 4134 
L 147 4666 
z
" transform="scale(0.015625)"/>
       <path id="DejaVuSansMono-45" d="M 616 4666 
L 3384 4666 
L 3384 4134 
L 1247 4134 
L 1247 2753 
L 3291 2753 
L 3291 2222 
L 1247 2222 
L 1247 531 
L 3444 531 
L 3444 0 
L 616 0 
L 616 4666 
z
" transform="scale(0.015625)"/>
       <path id="DejaVuSansMono-4d" d="M 269 4666 
L 1113 4666 
L 1919 2291 
L 2731 4666 
L 3578 4666 
L 3578 0 
L 2994 0 
L 2994 4122 
L 2163 1663 
L 1684 1663 
L 850 4122 
L 850 0 
L 269 0 
L 269 4666 
z
" transform="scale(0.015625)"/>
       <path id="DejaVuSansMono-50" d="M 1247 4147 
L 1247 2394 
L 1978 2394 
Q 2416 2394 2661 2625 
Q 2906 2856 2906 3272 
Q 2906 3688 2662 3917 
Q 2419 4147 1978 4147 
L 1247 4147 
z
M 616 4666 
L 1978 4666 
Q 2759 4666 3162 4311 
Q 3566 3956 3566 3272 
Q 3566 2581 3164 2228 
Q 2763 1875 1978 1875 
L 1247 1875 
L 1247 0 
L 616 0 
L 616 4666 
z
" transform="scale(0.015625)"/>
       <path id="DejaVuSansMono-52" d="M 2375 2203 
Q 2619 2141 2791 1967 
Q 2963 1794 3219 1275 
L 3853 0 
L 3175 0 
L 2619 1178 
Q 2378 1681 2186 1826 
Q 1994 1972 1684 1972 
L 1081 1972 
L 1081 0 
L 447 0 
L 447 4666 
L 1747 4666 
Q 2516 4666 2925 4319 
Q 3334 3972 3334 3316 
Q 3334 2853 3082 2561 
Q 2831 2269 2375 2203 
z
M 1081 4147 
L 1081 2491 
L 1772 2491 
Q 2225 2491 2447 2694 
Q 2669 2897 2669 3316 
Q 2669 3719 2433 3933 
Q 2197 4147 1747 4147 
L 1081 4147 
z
" transform="scale(0.015625)"/>
       <path id="DejaVuSansMono-41" d="M 1925 4109 
L 1259 1722 
L 2591 1722 
L 1925 4109 
z
M 1544 4666 
L 2309 4666 
L 3738 0 
L 3084 0 
L 2741 1216 
L 1106 1216 
L 769 0 
L 116 0 
L 1544 4666 
z
" transform="scale(0.015625)"/>
       <path id="DejaVuSansMono-28" d="M 2766 4856 
Q 2350 4144 2145 3436 
Q 1941 2728 1941 2009 
Q 1941 1294 2145 584 
Q 2350 -125 2766 -844 
L 2266 -844 
Q 1794 -100 1562 604 
Q 1331 1309 1331 2009 
Q 1331 2706 1562 3412 
Q 1794 4119 2266 4856 
L 2766 4856 
z
" transform="scale(0.015625)"/>
       <path id="DejaVuSansMono-4b" d="M 428 4666 
L 1063 4666 
L 1063 2591 
L 3034 4666 
L 3775 4666 
L 1959 2759 
L 3828 0 
L 3066 0 
L 1544 2338 
L 1063 1825 
L 1063 0 
L 428 0 
L 428 4666 
z
" transform="scale(0.015625)"/>
       <path id="DejaVuSansMono-29" d="M 1088 4856 
L 1588 4856 
Q 2059 4119 2290 3412 
Q 2522 2706 2522 2009 
Q 2522 1306 2290 600 
Q 2059 -106 1588 -844 
L 1088 -844 
Q 1503 -119 1708 590 
Q 1913 1300 1913 2009 
Q 1913 2722 1708 3431 
Q 1503 4141 1088 4856 
z
" transform="scale(0.015625)"/>
      </defs>
      <use xlink:href="#DejaVuSansMono-48"/>
      <use xlink:href="#DejaVuSansMono-55" transform="translate(60.205078 0)"/>
      <use xlink:href="#DejaVuSansMono-4c" transform="translate(120.410156 0)"/>
      <use xlink:href="#DejaVuSansMono-4c" transform="translate(180.615234 0)"/>
      <use xlink:href="#DejaVuSansMono-20" transform="translate(240.820312 0)"/>
      <use xlink:href="#DejaVuSansMono-54" transform="translate(301.025391 0)"/>
      <use xlink:href="#DejaVuSansMono-45" transform="translate(361.230469 0)"/>
      <use xlink:href="#DejaVuSansMono-4d" transform="translate(421.435547 0)"/>
      <use xlink:href="#DejaVuSansMono-50" transform="translate(481.640625 0)"/>
      <use xlink:href="#DejaVuSansMono-45" transform="translate(541.845703 0)"/>
      <use xlink:href="#DejaVuSansMono-52" transform="translate(602.050781 0)"/>
      <use xlink:href="#DejaVuSansMono-41" transform="translate(662.255859 0)"/>
      <use xlink:href="#DejaVuSansMono-54" transform="translate(722.460938 0)"/>
      <use xlink:href="#DejaVuSansMono-55" transform="translate(782.666016 0)"/>
      <use xlink:href="#DejaVuSansMono-52" transform="translate(842.871094 0)"/>
      <use xlink:href="#DejaVuSansMono-45" transform="translate(903.076172 0)"/>
      <use xlink:href="#DejaVuSansMono-20" transform="translate(963.28125 0)"/>
      <use xlink:href="#DejaVuSansMono-20" transform="translate(1023.486328 0)"/>
      <use xlink:href="#DejaVuSansMono-54" transform="translate(1083.691406 0)"/>
      <use xlink:href="#DejaVuSansMono-20" transform="translate(1143.896484 0)"/>
      <use xlink:href="#DejaVuSansMono-20" transform="translate(1204.101562 0)"/>
      <use xlink:href="#DejaVuSansMono-28" transform="translate(1264.306641 0)"/>
      <use xlink:href="#DejaVuSansMono-4b" transform="translate(1324.511719 0)"/>
      <use xlink:href="#DejaVuSansMono-29" transform="translate(1384.716797 0)"/>
     </g>
    </g>
   </g>
   <g id="matplotlib.axis_2">
    <g id="ytick_1">
     <g id="line2d_18">
      <path d="M 43.880625 354.198281 
L 546.080625 354.198281 
" clip-path="url(#p47c8944978)" style="fill: none; stroke-dasharray: 0.8,1.32; stroke-dashoffset: 0; stroke: #6d7380; stroke-opacity: 0.25; stroke-width: 0.8"/>
     </g>
     <g id="line2d_19">
      <defs>
       <path id="m2b41644bd2" d="M 0 0 
L -3.5 0 
" style="stroke: #f0e6d2; stroke-width: 0.8"/>
      </defs>
      <g>
       <use xlink:href="#m2b41644bd2" x="43.880625" y="354.198281" style="fill: #f0e6d2; stroke: #f0e6d2; stroke-width: 0.8"/>
      </g>
     </g>
     <g id="text_4">
      <!-- $\mathdefault{10^{8}}$ -->
      <g style="fill: #f0e6d2" transform="translate(23.520625 357.258906) scale(0.08 -0.08)">
       <defs>
        <path id="DejaVuSansMono-38" d="M 1925 2216 
Q 1503 2216 1273 1980 
Q 1044 1744 1044 1313 
Q 1044 881 1276 642 
Q 1509 403 1925 403 
Q 2350 403 2579 639 
Q 2809 875 2809 1313 
Q 2809 1741 2576 1978 
Q 2344 2216 1925 2216 
z
M 1375 2478 
Q 972 2581 745 2862 
Q 519 3144 519 3541 
Q 519 4097 897 4423 
Q 1275 4750 1925 4750 
Q 2578 4750 2956 4423 
Q 3334 4097 3334 3541 
Q 3334 3144 3107 2862 
Q 2881 2581 2478 2478 
Q 2947 2375 3195 2062 
Q 3444 1750 3444 1253 
Q 3444 622 3041 265 
Q 2638 -91 1925 -91 
Q 1213 -91 811 264 
Q 409 619 409 1247 
Q 409 1747 657 2061 
Q 906 2375 1375 2478 
z
M 1147 3481 
Q 1147 3106 1347 2909 
Q 1547 2713 1925 2713 
Q 2306 2713 2506 2909 
Q 2706 3106 2706 3481 
Q 2706 3863 2507 4063 
Q 2309 4263 1925 4263 
Q 1547 4263 1347 4061 
Q 1147 3859 1147 3481 
z
" transform="scale(0.015625)"/>
       </defs>
       <use xlink:href="#DejaVuSansMono-31" transform="translate(0 0.765625)"/>
       <use xlink:href="#DejaVuSansMono-30" transform="translate(60.205078 0.765625)"/>
       <use xlink:href="#DejaVuSansMono-38" transform="translate(121.367188 39.046875) scale(0.7)"/>
      </g>
     </g>
    </g>
    <g id="ytick_2">
     <g id="line2d_20">
      <path d="M 43.880625 308.838281 
L 546.080625 308.838281 
" clip-path="url(#p47c8944978)" style="fill: none; stroke-dasharray: 0.8,1.32; stroke-dashoffset: 0; stroke: #6d7380; stroke-opacity: 0.25; stroke-width: 0.8"/>
     </g>
     <g id="line2d_21">
      <g>
       <use xlink:href="#m2b41644bd2" x="43.880625" y="308.838281" style="fill: #f0e6d2; stroke: #f0e6d2; stroke-width: 0.8"/>
      </g>
     </g>
     <g id="text_5">
      <!-- $\mathdefault{10^{11}}$ -->
      <g style="fill: #f0e6d2" transform="translate(20.160625 311.898906) scale(0.08 -0.08)">
       <use xlink:href="#DejaVuSansMono-31" transform="translate(0 0.684375)"/>
       <use xlink:href="#DejaVuSansMono-30" transform="translate(60.205078 0.684375)"/>
       <use xlink:href="#DejaVuSansMono-31" transform="translate(121.367188 38.965625) scale(0.7)"/>
       <use xlink:href="#DejaVuSansMono-31" transform="translate(163.510742 38.965625) scale(0.7)"/>
      </g>
     </g>
    </g>
    <g id="ytick_3">
     <g id="line2d_22">
      <path d="M 43.880625 263.478281 
L 546.080625 263.478281 
" clip-path="url(#p47c8944978)" style="fill: none; stroke-dasharray: 0.8,1.32; stroke-dashoffset: 0; stroke: #6d7380; stroke-opacity: 0.25; stroke-width: 0.8"/>
     </g>
     <g id="line2d_23">
      <g>
       <use xlink:href="#m2b41644bd2" x="43.880625" y="263.478281" style="fill: #f0e6d2; stroke: #f0e6d2; stroke-width: 0.8"/>
      </g>
     </g>
     <g id="text_6">
      <!-- $\mathdefault{10^{14}}$ -->
      <g style="fill: #f0e6d2" transform="translate(20.160625 266.538906) scale(0.08 -0.08)">
       <defs>
        <path id="DejaVuSansMono-34" d="M 2297 4091 
L 825 1625 
L 2297 1625 
L 2297 4091 
z
M 2194 4666 
L 2925 4666 
L 2925 1625 
L 3547 1625 
L 3547 1113 
L 2925 1113 
L 2925 0 
L 2297 0 
L 2297 1113 
L 319 1113 
L 319 1709 
L 2194 4666 
z
" transform="scale(0.015625)"/>
       </defs>
       <use xlink:href="#DejaVuSansMono-31" transform="translate(0 0.684375)"/>
       <use xlink:href="#DejaVuSansMono-30" transform="translate(60.205078 0.684375)"/>
       <use xlink:href="#DejaVuSansMono-31" transform="translate(121.367188 38.965625) scale(0.7)"/>
       <use xlink:href="#DejaVuSansMono-34" transform="translate(163.510742 38.965625) scale(0.7)"/>
      </g>
     </g>
    </g>
    <g id="ytick_4">
     <g id="line2d_24">
      <path d="M 43.880625 218.118281 
L 546.080625 218.118281 
" clip-path="url(#p47c8944978)" style="fill: none; stroke-dasharray: 0.8,1.32; stroke-dashoffset: 0; stroke: #6d7380; stroke-opacity: 0.25; stroke-width: 0.8"/>
     </g>
     <g id="line2d_25">
      <g>
       <use xlink:href="#m2b41644bd2" x="43.880625" y="218.118281" style="fill: #f0e6d2; stroke: #f0e6d2; stroke-width: 0.8"/>
      </g>
     </g>
     <g id="text_7">
      <!-- $\mathdefault{10^{17}}$ -->
      <g style="fill: #f0e6d2" transform="translate(20.160625 221.178906) scale(0.08 -0.08)">
       <defs>
        <path id="DejaVuSansMono-37" d="M 434 4666 
L 3372 4666 
L 3372 4397 
L 1703 0 
L 1044 0 
L 2669 4134 
L 434 4134 
L 434 4666 
z
" transform="scale(0.015625)"/>
       </defs>
       <use xlink:href="#DejaVuSansMono-31" transform="translate(0 0.684375)"/>
       <use xlink:href="#DejaVuSansMono-30" transform="translate(60.205078 0.684375)"/>
       <use xlink:href="#DejaVuSansMono-31" transform="translate(121.367188 38.965625) scale(0.7)"/>
       <use xlink:href="#DejaVuSansMono-37" transform="translate(163.510742 38.965625) scale(0.7)"/>
      </g>
     </g>
    </g>
    <g id="ytick_5">
     <g id="line2d_26">
      <path d="M 43.880625 172.758281 
L 546.080625 172.758281 
" clip-path="url(#p47c8944978)" style="fill: none; stroke-dasharray: 0.8,1.32; stroke-dashoffset: 0; stroke: #6d7380; stroke-opacity: 0.25; stroke-width: 0.8"/>
     </g>
     <g id="line2d_27">
      <g>
       <use xlink:href="#m2b41644bd2" x="43.880625" y="172.758281" style="fill: #f0e6d2; stroke: #f0e6d2; stroke-width: 0.8"/>
      </g>
     </g>
     <g id="text_8">
      <!-- $\mathdefault{10^{20}}$ -->
      <g style="fill: #f0e6d2" transform="translate(20.160625 175.818906) scale(0.08 -0.08)">
       <use xlink:href="#DejaVuSansMono-31" transform="translate(0 0.765625)"/>
       <use xlink:href="#DejaVuSansMono-30" transform="translate(60.205078 0.765625)"/>
       <use xlink:href="#DejaVuSansMono-32" transform="translate(121.367188 39.046875) scale(0.7)"/>
       <use xlink:href="#DejaVuSansMono-30" transform="translate(163.510742 39.046875) scale(0.7)"/>
      </g>
     </g>
    </g>
    <g id="ytick_6">
     <g id="line2d_28">
      <path d="M 43.880625 127.398281 
L 546.080625 127.398281 
" clip-path="url(#p47c8944978)" style="fill: none; stroke-dasharray: 0.8,1.32; stroke-dashoffset: 0; stroke: #6d7380; stroke-opacity: 0.25; stroke-width: 0.8"/>
     </g>
     <g id="line2d_29">
      <g>
       <use xlink:href="#m2b41644bd2" x="43.880625" y="127.398281" style="fill: #f0e6d2; stroke: #f0e6d2; stroke-width: 0.8"/>
      </g>
     </g>
     <g id="text_9">
      <!-- $\mathdefault{10^{23}}$ -->
      <g style="fill: #f0e6d2" transform="translate(20.160625 130.458906) scale(0.08 -0.08)">
       <use xlink:href="#DejaVuSansMono-31" transform="translate(0 0.765625)"/>
       <use xlink:href="#DejaVuSansMono-30" transform="translate(60.205078 0.765625)"/>
       <use xlink:href="#DejaVuSansMono-32" transform="translate(121.367188 39.046875) scale(0.7)"/>
       <use xlink:href="#DejaVuSansMono-33" transform="translate(163.510742 39.046875) scale(0.7)"/>
      </g>
     </g>
    </g>
    <g id="ytick_7">
     <g id="line2d_30">
      <path d="M 43.880625 82.038281 
L 546.080625 82.038281 
" clip-path="url(#p47c8944978)" style="fill: none; stroke-dasharray: 0.8,1.32; stroke-dashoffset: 0; stroke: #6d7380; stroke-opacity: 0.25; stroke-width: 0.8"/>
     </g>
     <g id="line2d_31">
      <g>
       <use xlink:href="#m2b41644bd2" x="43.880625" y="82.038281" style="fill: #f0e6d2; stroke: #f0e6d2; stroke-width: 0.8"/>
      </g>
     </g>
     <g id="text_10">
      <!-- $\mathdefault{10^{26}}$ -->
      <g style="fill: #f0e6d2" transform="translate(20.160625 85.098906) scale(0.08 -0.08)">
       <defs>
        <path id="DejaVuSansMono-36" d="M 3097 4563 
L 3097 3981 
Q 2900 4097 2678 4158 
Q 2456 4219 2216 4219 
Q 1616 4219 1306 3767 
Q 997 3316 997 2438 
Q 1147 2750 1412 2917 
Q 1678 3084 2022 3084 
Q 2697 3084 3067 2670 
Q 3438 2256 3438 1497 
Q 3438 741 3056 325 
Q 2675 -91 1984 -91 
Q 1172 -91 794 492 
Q 416 1075 416 2328 
Q 416 3509 870 4129 
Q 1325 4750 2188 4750 
Q 2419 4750 2650 4701 
Q 2881 4653 3097 4563 
z
M 1972 2591 
Q 1569 2591 1337 2300 
Q 1106 2009 1106 1497 
Q 1106 984 1337 693 
Q 1569 403 1972 403 
Q 2391 403 2603 679 
Q 2816 956 2816 1497 
Q 2816 2041 2603 2316 
Q 2391 2591 1972 2591 
z
" transform="scale(0.015625)"/>
       </defs>
       <use xlink:href="#DejaVuSansMono-31" transform="translate(0 0.765625)"/>
       <use xlink:href="#DejaVuSansMono-30" transform="translate(60.205078 0.765625)"/>
       <use xlink:href="#DejaVuSansMono-32" transform="translate(121.367188 39.046875) scale(0.7)"/>
       <use xlink:href="#DejaVuSansMono-36" transform="translate(163.510742 39.046875) scale(0.7)"/>
      </g>
     </g>
    </g>
    <g id="ytick_8">
     <g id="line2d_32">
      <path d="M 43.880625 36.678281 
L 546.080625 36.678281 
" clip-path="url(#p47c8944978)" style="fill: none; stroke-dasharray: 0.8,1.32; stroke-dashoffset: 0; stroke: #6d7380; stroke-opacity: 0.25; stroke-width: 0.8"/>
     </g>
     <g id="line2d_33">
      <g>
       <use xlink:href="#m2b41644bd2" x="43.880625" y="36.678281" style="fill: #f0e6d2; stroke: #f0e6d2; stroke-width: 0.8"/>
      </g>
     </g>
     <g id="text_11">
      <!-- $\mathdefault{10^{29}}$ -->
      <g style="fill: #f0e6d2" transform="translate(20.160625 39.738906) scale(0.08 -0.08)">
       <defs>
        <path id="DejaVuSansMono-39" d="M 1863 2069 
Q 2266 2069 2495 2359 
Q 2725 2650 2725 3163 
Q 2725 3675 2495 3965 
Q 2266 4256 1863 4256 
Q 1444 4256 1231 3979 
Q 1019 3703 1019 3163 
Q 1019 2619 1230 2344 
Q 1441 2069 1863 2069 
z
M 738 97 
L 738 678 
Q 934 563 1156 502 
Q 1378 441 1619 441 
Q 2219 441 2526 892 
Q 2834 1344 2834 2222 
Q 2688 1909 2422 1742 
Q 2156 1575 1813 1575 
Q 1138 1575 767 1990 
Q 397 2406 397 3169 
Q 397 3922 776 4336 
Q 1156 4750 1850 4750 
Q 2663 4750 3041 4165 
Q 3419 3581 3419 2328 
Q 3419 1150 2964 529 
Q 2509 -91 1644 -91 
Q 1416 -91 1184 -42 
Q 953 6 738 97 
z
" transform="scale(0.015625)"/>
       </defs>
       <use xlink:href="#DejaVuSansMono-31" transform="translate(0 0.765625)"/>
       <use xlink:href="#DejaVuSansMono-30" transform="translate(60.205078 0.765625)"/>
       <use xlink:href="#DejaVuSansMono-32" transform="translate(121.367188 39.046875) scale(0.7)"/>
       <use xlink:href="#DejaVuSansMono-39" transform="translate(163.510742 39.046875) scale(0.7)"/>
      </g>
     </g>
    </g>
    <g id="text_12">
     <!-- RADIATED POWER  P = σ T⁴ A_s  (W)   [A_s = 4.52 × 10¹⁰ m²] -->
     <g style="fill: #f0e6d2" transform="translate(14.038594 345.008438) rotate(-90) scale(0.09 -0.09)">
      <defs>
       <path id="DejaVuSansMono-44" d="M 1363 519 
Q 2159 519 2475 911 
Q 2791 1303 2791 2328 
Q 2791 3363 2477 3755 
Q 2163 4147 1363 4147 
L 1063 4147 
L 1063 519 
L 1363 519 
z
M 1375 4666 
Q 2444 4666 2950 4097 
Q 3456 3528 3456 2328 
Q 3456 1134 2950 567 
Q 2444 0 1375 0 
L 428 0 
L 428 4666 
L 1375 4666 
z
" transform="scale(0.015625)"/>
       <path id="DejaVuSansMono-49" d="M 628 4666 
L 3219 4666 
L 3219 4134 
L 2241 4134 
L 2241 531 
L 3219 531 
L 3219 0 
L 628 0 
L 628 531 
L 1606 531 
L 1606 4134 
L 628 4134 
L 628 4666 
z
" transform="scale(0.015625)"/>
       <path id="DejaVuSansMono-4f" d="M 2828 2328 
Q 2828 3356 2617 3797 
Q 2406 4238 1925 4238 
Q 1447 4238 1236 3797 
Q 1025 3356 1025 2328 
Q 1025 1303 1236 862 
Q 1447 422 1925 422 
Q 2406 422 2617 861 
Q 2828 1300 2828 2328 
z
M 3488 2328 
Q 3488 1109 3102 509 
Q 2716 -91 1925 -91 
Q 1134 -91 750 506 
Q 366 1103 366 2328 
Q 366 3550 752 4150 
Q 1138 4750 1925 4750 
Q 2716 4750 3102 4150 
Q 3488 3550 3488 2328 
z
" transform="scale(0.015625)"/>
       <path id="DejaVuSansMono-57" d="M 0 4666 
L 616 4666 
L 1063 878 
L 1594 3384 
L 2253 3384 
L 2791 872 
L 3238 4666 
L 3853 4666 
L 3156 0 
L 2559 0 
L 1925 2772 
L 1294 0 
L 697 0 
L 0 4666 
z
" transform="scale(0.015625)"/>
       <path id="DejaVuSansMono-3d" d="M 275 1638 
L 3578 1638 
L 3578 1100 
L 275 1100 
L 275 1638 
z
M 275 2906 
L 3578 2906 
L 3578 2375 
L 275 2375 
L 275 2906 
z
" transform="scale(0.015625)"/>
       <path id="DejaVuSansMono-3c3" d="M 1903 2922 
Q 1481 2922 1263 2672 
Q 1038 2413 1038 1747 
Q 1038 1081 1263 739 
Q 1488 397 1925 397 
Q 2366 397 2591 739 
Q 2816 1081 2816 1538 
Q 2816 2316 2278 2719 
Q 2091 2859 1903 2922 
z
M 2781 2925 
Q 3425 2419 3425 1538 
Q 3425 825 2953 303 
Q 2597 -94 1925 -91 
Q 1197 -91 812 379 
Q 428 850 428 1747 
Q 428 2575 813 3053 
Q 1172 3500 1925 3500 
L 3534 3500 
L 3534 2925 
L 2781 2925 
z
" transform="scale(0.015625)"/>
       <path id="DejaVuSansMono-2074" d="M 1972 4697 
L 2478 4697 
L 2478 3016 
L 2841 3016 
L 2841 2669 
L 2478 2669 
L 2478 2088 
L 2047 2088 
L 2047 2669 
L 838 2669 
L 838 3047 
L 1972 4697 
z
M 2047 4306 
L 1191 3016 
L 2047 3016 
L 2047 4306 
z
" transform="scale(0.015625)"/>
       <path id="DejaVuSansMono-5f" d="M 3853 -1259 
L 3853 -1509 
L 0 -1509 
L 0 -1259 
L 3853 -1259 
z
" transform="scale(0.015625)"/>
       <path id="DejaVuSansMono-73" d="M 3041 3378 
L 3041 2816 
Q 2794 2959 2544 3031 
Q 2294 3103 2034 3103 
Q 1644 3103 1451 2976 
Q 1259 2850 1259 2591 
Q 1259 2356 1403 2240 
Q 1547 2125 2119 2016 
L 2350 1972 
Q 2778 1891 2998 1647 
Q 3219 1403 3219 1013 
Q 3219 494 2850 201 
Q 2481 -91 1825 -91 
Q 1566 -91 1281 -36 
Q 997 19 666 128 
L 666 722 
Q 988 556 1281 473 
Q 1575 391 1838 391 
Q 2219 391 2428 545 
Q 2638 700 2638 978 
Q 2638 1378 1872 1531 
L 1847 1538 
L 1631 1581 
Q 1134 1678 906 1908 
Q 678 2138 678 2534 
Q 678 3038 1018 3311 
Q 1359 3584 1991 3584 
Q 2272 3584 2531 3532 
Q 2791 3481 3041 3378 
z
" transform="scale(0.015625)"/>
       <path id="DejaVuSansMono-5b" d="M 1447 4863 
L 2772 4863 
L 2772 4416 
L 2022 4416 
L 2022 -397 
L 2772 -397 
L 2772 -844 
L 1447 -844 
L 1447 4863 
z
" transform="scale(0.015625)"/>
       <path id="DejaVuSansMono-2e" d="M 1528 953 
L 2316 953 
L 2316 0 
L 1528 0 
L 1528 953 
z
" transform="scale(0.015625)"/>
       <path id="DejaVuSansMono-35" d="M 647 4666 
L 3009 4666 
L 3009 4134 
L 1222 4134 
L 1222 2988 
Q 1356 3038 1492 3061 
Q 1628 3084 1766 3084 
Q 2491 3084 2916 2656 
Q 3341 2228 3341 1497 
Q 3341 759 2895 334 
Q 2450 -91 1678 -91 
Q 1306 -91 998 -41 
Q 691 9 447 109 
L 447 750 
Q 734 594 1025 517 
Q 1316 441 1619 441 
Q 2141 441 2423 716 
Q 2706 991 2706 1497 
Q 2706 1997 2414 2275 
Q 2122 2553 1600 2553 
Q 1347 2553 1106 2495 
Q 866 2438 647 2322 
L 647 4666 
z
" transform="scale(0.015625)"/>
       <path id="DejaVuSansMono-d7" d="M 469 916 
L 1563 2003 
L 469 3097 
L 831 3463 
L 1925 2369 
L 3022 3463 
L 3384 3097 
L 2291 2003 
L 3378 916 
L 3016 544 
L 1925 1638 
L 838 544 
L 469 916 
z
" transform="scale(0.015625)"/>
       <path id="DejaVuSansMono-b9" d="M 1131 2431 
L 1772 2431 
L 1772 4341 
L 1075 4213 
L 1075 4575 
L 1791 4697 
L 2222 4697 
L 2222 2431 
L 2859 2431 
L 2859 2088 
L 1131 2088 
L 1131 2431 
z
" transform="scale(0.015625)"/>
       <path id="DejaVuSansMono-2070" d="M 1741 3234 
Q 1669 3300 1669 3400 
Q 1669 3500 1744 3572 
Q 1816 3641 1922 3641 
Q 2038 3641 2109 3572 
Q 2184 3500 2184 3400 
Q 2184 3297 2109 3234 
Q 2031 3169 1922 3169 
Q 1813 3169 1741 3234 
z
M 1925 4472 
Q 1653 4472 1519 4206 
Q 1381 3941 1381 3394 
Q 1381 2850 1519 2584 
Q 1653 2319 1925 2319 
Q 2200 2319 2334 2584 
Q 2472 2850 2472 3394 
Q 2472 3941 2334 4206 
Q 2200 4472 1925 4472 
z
M 1925 4750 
Q 2391 4750 2628 4406 
Q 2866 4066 2866 3394 
Q 2866 2725 2628 2381 
Q 2391 2041 1925 2041 
Q 1456 2041 1225 2381 
Q 991 2725 991 3394 
Q 991 4066 1225 4406 
Q 1463 4750 1925 4750 
z
" transform="scale(0.015625)"/>
       <path id="DejaVuSansMono-6d" d="M 2113 3144 
Q 2219 3369 2383 3476 
Q 2547 3584 2778 3584 
Q 3200 3584 3373 3257 
Q 3547 2931 3547 2028 
L 3547 0 
L 3022 0 
L 3022 2003 
Q 3022 2744 2939 2923 
Q 2856 3103 2638 3103 
Q 2388 3103 2295 2911 
Q 2203 2719 2203 2003 
L 2203 0 
L 1678 0 
L 1678 2003 
Q 1678 2753 1589 2928 
Q 1500 3103 1269 3103 
Q 1041 3103 952 2911 
Q 863 2719 863 2003 
L 863 0 
L 341 0 
L 341 3500 
L 863 3500 
L 863 3200 
Q 966 3388 1120 3486 
Q 1275 3584 1472 3584 
Q 1709 3584 1867 3475 
Q 2025 3366 2113 3144 
z
" transform="scale(0.015625)"/>
       <path id="DejaVuSansMono-b2" d="M 1509 2444 
L 2791 2444 
L 2791 2088 
L 1006 2088 
L 1006 2431 
L 1728 3138 
Q 2044 3441 2170 3631 
Q 2297 3822 2297 3981 
Q 2297 4172 2140 4290 
Q 1984 4409 1728 4409 
Q 1575 4409 1398 4353 
Q 1222 4297 1025 4184 
L 1025 4575 
Q 1228 4663 1417 4706 
Q 1606 4750 1791 4750 
Q 2234 4750 2503 4542 
Q 2772 4334 2772 4000 
Q 2772 3822 2656 3636 
Q 2541 3450 2169 3084 
L 1509 2444 
z
" transform="scale(0.015625)"/>
       <path id="DejaVuSansMono-5d" d="M 2406 4863 
L 2406 -844 
L 1081 -844 
L 1081 -397 
L 1831 -397 
L 1831 4416 
L 1081 4416 
L 1081 4863 
L 2406 4863 
z
" transform="scale(0.015625)"/>
      </defs>
      <use xlink:href="#DejaVuSansMono-52"/>
      <use xlink:href="#DejaVuSansMono-41" transform="translate(60.205078 0)"/>
      <use xlink:href="#DejaVuSansMono-44" transform="translate(120.410156 0)"/>
      <use xlink:href="#DejaVuSansMono-49" transform="translate(180.615234 0)"/>
      <use xlink:href="#DejaVuSansMono-41" transform="translate(240.820312 0)"/>
      <use xlink:href="#DejaVuSansMono-54" transform="translate(301.025391 0)"/>
      <use xlink:href="#DejaVuSansMono-45" transform="translate(361.230469 0)"/>
      <use xlink:href="#DejaVuSansMono-44" transform="translate(421.435547 0)"/>
      <use xlink:href="#DejaVuSansMono-20" transform="translate(481.640625 0)"/>
      <use xlink:href="#DejaVuSansMono-50" transform="translate(541.845703 0)"/>
      <use xlink:href="#DejaVuSansMono-4f" transform="translate(602.050781 0)"/>
      <use xlink:href="#DejaVuSansMono-57" transform="translate(662.255859 0)"/>
      <use xlink:href="#DejaVuSansMono-45" transform="translate(722.460938 0)"/>
      <use xlink:href="#DejaVuSansMono-52" transform="translate(782.666016 0)"/>
      <use xlink:href="#DejaVuSansMono-20" transform="translate(842.871094 0)"/>
      <use xlink:href="#DejaVuSansMono-20" transform="translate(903.076172 0)"/>
      <use xlink:href="#DejaVuSansMono-50" transform="translate(963.28125 0)"/>
      <use xlink:href="#DejaVuSansMono-20" transform="translate(1023.486328 0)"/>
      <use xlink:href="#DejaVuSansMono-3d" transform="translate(1083.691406 0)"/>
      <use xlink:href="#DejaVuSansMono-20" transform="translate(1143.896484 0)"/>
      <use xlink:href="#DejaVuSansMono-3c3" transform="translate(1204.101562 0)"/>
      <use xlink:href="#DejaVuSansMono-20" transform="translate(1264.306641 0)"/>
      <use xlink:href="#DejaVuSansMono-54" transform="translate(1324.511719 0)"/>
      <use xlink:href="#DejaVuSansMono-2074" transform="translate(1384.716797 0)"/>
      <use xlink:href="#DejaVuSansMono-20" transform="translate(1444.921875 0)"/>
      <use xlink:href="#DejaVuSansMono-41" transform="translate(1505.126953 0)"/>
      <use xlink:href="#DejaVuSansMono-5f" transform="translate(1565.332031 0)"/>
      <use xlink:href="#DejaVuSansMono-73" transform="translate(1625.537109 0)"/>
      <use xlink:href="#DejaVuSansMono-20" transform="translate(1685.742188 0)"/>
      <use xlink:href="#DejaVuSansMono-20" transform="translate(1745.947266 0)"/>
      <use xlink:href="#DejaVuSansMono-28" transform="translate(1806.152344 0)"/>
      <use xlink:href="#DejaVuSansMono-57" transform="translate(1866.357422 0)"/>
      <use xlink:href="#DejaVuSansMono-29" transform="translate(1926.5625 0)"/>
      <use xlink:href="#DejaVuSansMono-20" transform="translate(1986.767578 0)"/>
      <use xlink:href="#DejaVuSansMono-20" transform="translate(2046.972656 0)"/>
      <use xlink:href="#DejaVuSansMono-20" transform="translate(2107.177734 0)"/>
      <use xlink:href="#DejaVuSansMono-5b" transform="translate(2167.382812 0)"/>
      <use xlink:href="#DejaVuSansMono-41" transform="translate(2227.587891 0)"/>
      <use xlink:href="#DejaVuSansMono-5f" transform="translate(2287.792969 0)"/>
      <use xlink:href="#DejaVuSansMono-73" transform="translate(2347.998047 0)"/>
      <use xlink:href="#DejaVuSansMono-20" transform="translate(2408.203125 0)"/>
      <use xlink:href="#DejaVuSansMono-3d" transform="translate(2468.408203 0)"/>
      <use xlink:href="#DejaVuSansMono-20" transform="translate(2528.613281 0)"/>
      <use xlink:href="#DejaVuSansMono-34" transform="translate(2588.818359 0)"/>
      <use xlink:href="#DejaVuSansMono-2e" transform="translate(2649.023438 0)"/>
      <use xlink:href="#DejaVuSansMono-35" transform="translate(2709.228516 0)"/>
      <use xlink:href="#DejaVuSansMono-32" transform="translate(2769.433594 0)"/>
      <use xlink:href="#DejaVuSansMono-20" transform="translate(2829.638672 0)"/>
      <use xlink:href="#DejaVuSansMono-d7" transform="translate(2889.84375 0)"/>
      <use xlink:href="#DejaVuSansMono-20" transform="translate(2950.048828 0)"/>
      <use xlink:href="#DejaVuSansMono-31" transform="translate(3010.253906 0)"/>
      <use xlink:href="#DejaVuSansMono-30" transform="translate(3070.458984 0)"/>
      <use xlink:href="#DejaVuSansMono-b9" transform="translate(3130.664062 0)"/>
      <use xlink:href="#DejaVuSansMono-2070" transform="translate(3190.869141 0)"/>
      <use xlink:href="#DejaVuSansMono-20" transform="translate(3251.074219 0)"/>
      <use xlink:href="#DejaVuSansMono-6d" transform="translate(3311.279297 0)"/>
      <use xlink:href="#DejaVuSansMono-b2" transform="translate(3371.484375 0)"/>
      <use xlink:href="#DejaVuSansMono-5d" transform="translate(3431.689453 0)"/>
     </g>
    </g>
   </g>
   <g id="line2d_34">
    <path d="M 43.880625 302.657979 
L 546.080625 195.115391 
L 546.080625 195.115391 
" clip-path="url(#p47c8944978)" style="fill: none; stroke: #f5a623; stroke-width: 2; stroke-linecap: square"/>
   </g>
   <g id="line2d_35">
    <path d="M 43.880625 60.662619 
L 546.080625 60.662619 
" clip-path="url(#p47c8944978)" style="fill: none; stroke-dasharray: 5.55,2.4; stroke-dashoffset: 0; stroke: #e74c3c; stroke-width: 1.5"/>
   </g>
   <g id="line2d_36">
    <path d="M 178.633107 354.198281 
L 178.633107 21.558281 
" clip-path="url(#p47c8944978)" style="fill: none; stroke-dasharray: 1,1.65; stroke-dashoffset: 0; stroke: #4ec9b0; stroke-opacity: 0.6"/>
   </g>
   <g id="line2d_37">
    <path d="M 326.308793 354.198281 
L 326.308793 21.558281 
" clip-path="url(#p47c8944978)" style="fill: none; stroke-dasharray: 1,1.65; stroke-dashoffset: 0; stroke: #4ec9b0; stroke-opacity: 0.6"/>
   </g>
   <g id="line2d_38">
    <path d="M 438.698261 354.198281 
L 438.698261 21.558281 
" clip-path="url(#p47c8944978)" style="fill: none; stroke-dasharray: 1,1.65; stroke-dashoffset: 0; stroke: #f5a623; stroke-opacity: 0.6"/>
   </g>
   <g id="line2d_39">
    <path d="M 541.922363 354.198281 
L 541.922363 21.558281 
" clip-path="url(#p47c8944978)" style="fill: none; stroke-dasharray: 1,1.65; stroke-dashoffset: 0; stroke: #f5a623; stroke-opacity: 0.6"/>
   </g>
   <g id="patch_4">
    <path d="M 43.880625 354.198281 
L 43.880625 21.558281 
" style="fill: none; stroke: #f5a623; stroke-width: 0.8; stroke-linejoin: miter; stroke-linecap: square"/>
   </g>
   <g id="patch_5">
    <path d="M 546.080625 354.198281 
L 546.080625 21.558281 
" style="fill: none; stroke: #f5a623; stroke-width: 0.8; stroke-linejoin: miter; stroke-linecap: square"/>
   </g>
   <g id="patch_6">
    <path d="M 43.880625 354.198281 
L 546.080625 354.198281 
" style="fill: none; stroke: #f5a623; stroke-width: 0.8; stroke-linejoin: miter; stroke-linecap: square"/>
   </g>
   <g id="patch_7">
    <path d="M 43.880625 21.558281 
L 546.080625 21.558281 
" style="fill: none; stroke: #f5a623; stroke-width: 0.8; stroke-linejoin: miter; stroke-linecap: square"/>
   </g>
   <g id="text_13">
    <!-- REQUIRED 24-h MEAN REJECTION = 2.59e+27 W -->
    <g style="fill: #e74c3c" transform="translate(66.243639 57.576325) scale(0.08 -0.08)">
     <defs>
      <path id="DejaVuSansMono-51" d="M 2047 -84 
Q 2025 -84 1984 -87 
Q 1944 -91 1919 -91 
Q 1138 -91 752 509 
Q 366 1109 366 2328 
Q 366 3550 752 4150 
Q 1138 4750 1925 4750 
Q 2716 4750 3102 4150 
Q 3488 3550 3488 2328 
Q 3488 1409 3273 848 
Q 3059 288 2625 63 
L 3250 -531 
L 2778 -844 
L 2047 -84 
z
M 2828 2328 
Q 2828 3356 2617 3797 
Q 2406 4238 1925 4238 
Q 1447 4238 1236 3797 
Q 1025 3356 1025 2328 
Q 1025 1303 1236 862 
Q 1447 422 1925 422 
Q 2406 422 2617 861 
Q 2828 1300 2828 2328 
z
" transform="scale(0.015625)"/>
      <path id="DejaVuSansMono-2d" d="M 1113 2009 
L 2741 2009 
L 2741 1497 
L 1113 1497 
L 1113 2009 
z
" transform="scale(0.015625)"/>
      <path id="DejaVuSansMono-68" d="M 3284 2169 
L 3284 0 
L 2706 0 
L 2706 2169 
Q 2706 2641 2540 2862 
Q 2375 3084 2022 3084 
Q 1619 3084 1401 2798 
Q 1184 2513 1184 1978 
L 1184 0 
L 609 0 
L 609 4863 
L 1184 4863 
L 1184 2975 
Q 1338 3275 1600 3429 
Q 1863 3584 2222 3584 
Q 2756 3584 3020 3232 
Q 3284 2881 3284 2169 
z
" transform="scale(0.015625)"/>
      <path id="DejaVuSansMono-4e" d="M 434 4666 
L 1234 4666 
L 2809 825 
L 2809 4666 
L 3419 4666 
L 3419 0 
L 2619 0 
L 1044 3841 
L 1044 0 
L 434 0 
L 434 4666 
z
" transform="scale(0.015625)"/>
      <path id="DejaVuSansMono-4a" d="M 341 191 
L 341 928 
Q 625 675 928 548 
Q 1231 422 1556 422 
Q 2003 422 2179 655 
Q 2356 888 2356 1522 
L 2356 4134 
L 1166 4134 
L 1166 4666 
L 2988 4666 
L 2988 1522 
Q 2988 641 2658 275 
Q 2328 -91 1556 -91 
Q 1256 -91 959 -22 
Q 663 47 341 191 
z
" transform="scale(0.015625)"/>
      <path id="DejaVuSansMono-43" d="M 3353 166 
Q 3113 38 2859 -26 
Q 2606 -91 2322 -91 
Q 1425 -91 929 543 
Q 434 1178 434 2328 
Q 434 3472 932 4111 
Q 1431 4750 2322 4750 
Q 2606 4750 2859 4686 
Q 3113 4622 3353 4494 
L 3353 3847 
Q 3122 4038 2856 4138 
Q 2591 4238 2322 4238 
Q 1706 4238 1400 3763 
Q 1094 3288 1094 2328 
Q 1094 1372 1400 897 
Q 1706 422 2322 422 
Q 2597 422 2861 522 
Q 3125 622 3353 813 
L 3353 166 
z
" transform="scale(0.015625)"/>
      <path id="DejaVuSansMono-65" d="M 3475 1894 
L 3475 1613 
L 984 1613 
L 984 1594 
Q 984 1022 1282 709 
Q 1581 397 2125 397 
Q 2400 397 2700 484 
Q 3000 572 3341 750 
L 3341 178 
Q 3013 44 2708 -23 
Q 2403 -91 2119 -91 
Q 1303 -91 843 398 
Q 384 888 384 1747 
Q 384 2584 834 3084 
Q 1284 3584 2034 3584 
Q 2703 3584 3089 3131 
Q 3475 2678 3475 1894 
z
M 2900 2063 
Q 2888 2569 2661 2833 
Q 2434 3097 2009 3097 
Q 1594 3097 1325 2822 
Q 1056 2547 1006 2059 
L 2900 2063 
z
" transform="scale(0.015625)"/>
      <path id="DejaVuSansMono-2b" d="M 2188 3659 
L 2188 2272 
L 3578 2272 
L 3578 1741 
L 2188 1741 
L 2188 353 
L 1663 353 
L 1663 1741 
L 275 1741 
L 275 2272 
L 1663 2272 
L 1663 3659 
L 2188 3659 
z
" transform="scale(0.015625)"/>
     </defs>
     <use xlink:href="#DejaVuSansMono-52"/>
     <use xlink:href="#DejaVuSansMono-45" transform="translate(60.205078 0)"/>
     <use xlink:href="#DejaVuSansMono-51" transform="translate(120.410156 0)"/>
     <use xlink:href="#DejaVuSansMono-55" transform="translate(180.615234 0)"/>
     <use xlink:href="#DejaVuSansMono-49" transform="translate(240.820312 0)"/>
     <use xlink:href="#DejaVuSansMono-52" transform="translate(301.025391 0)"/>
     <use xlink:href="#DejaVuSansMono-45" transform="translate(361.230469 0)"/>
     <use xlink:href="#DejaVuSansMono-44" transform="translate(421.435547 0)"/>
     <use xlink:href="#DejaVuSansMono-20" transform="translate(481.640625 0)"/>
     <use xlink:href="#DejaVuSansMono-32" transform="translate(541.845703 0)"/>
     <use xlink:href="#DejaVuSansMono-34" transform="translate(602.050781 0)"/>
     <use xlink:href="#DejaVuSansMono-2d" transform="translate(662.255859 0)"/>
     <use xlink:href="#DejaVuSansMono-68" transform="translate(722.460938 0)"/>
     <use xlink:href="#DejaVuSansMono-20" transform="translate(782.666016 0)"/>
     <use xlink:href="#DejaVuSansMono-4d" transform="translate(842.871094 0)"/>
     <use xlink:href="#DejaVuSansMono-45" transform="translate(903.076172 0)"/>
     <use xlink:href="#DejaVuSansMono-41" transform="translate(963.28125 0)"/>
     <use xlink:href="#DejaVuSansMono-4e" transform="translate(1023.486328 0)"/>
     <use xlink:href="#DejaVuSansMono-20" transform="translate(1083.691406 0)"/>
     <use xlink:href="#DejaVuSansMono-52" transform="translate(1143.896484 0)"/>
     <use xlink:href="#DejaVuSansMono-45" transform="translate(1204.101562 0)"/>
     <use xlink:href="#DejaVuSansMono-4a" transform="translate(1264.306641 0)"/>
     <use xlink:href="#DejaVuSansMono-45" transform="translate(1324.511719 0)"/>
     <use xlink:href="#DejaVuSansMono-43" transform="translate(1384.716797 0)"/>
     <use xlink:href="#DejaVuSansMono-54" transform="translate(1444.921875 0)"/>
     <use xlink:href="#DejaVuSansMono-49" transform="translate(1505.126953 0)"/>
     <use xlink:href="#DejaVuSansMono-4f" transform="translate(1565.332031 0)"/>
     <use xlink:href="#DejaVuSansMono-4e" transform="translate(1625.537109 0)"/>
     <use xlink:href="#DejaVuSansMono-20" transform="translate(1685.742188 0)"/>
     <use xlink:href="#DejaVuSansMono-3d" transform="translate(1745.947266 0)"/>
     <use xlink:href="#DejaVuSansMono-20" transform="translate(1806.152344 0)"/>
     <use xlink:href="#DejaVuSansMono-32" transform="translate(1866.357422 0)"/>
     <use xlink:href="#DejaVuSansMono-2e" transform="translate(1926.5625 0)"/>
     <use xlink:href="#DejaVuSansMono-35" transform="translate(1986.767578 0)"/>
     <use xlink:href="#DejaVuSansMono-39" transform="translate(2046.972656 0)"/>
     <use xlink:href="#DejaVuSansMono-65" transform="translate(2107.177734 0)"/>
     <use xlink:href="#DejaVuSansMono-2b" transform="translate(2167.382812 0)"/>
     <use xlink:href="#DejaVuSansMono-32" transform="translate(2227.587891 0)"/>
     <use xlink:href="#DejaVuSansMono-37" transform="translate(2287.792969 0)"/>
     <use xlink:href="#DejaVuSansMono-20" transform="translate(2347.998047 0)"/>
     <use xlink:href="#DejaVuSansMono-57" transform="translate(2408.203125 0)"/>
    </g>
   </g>
   <g id="text_14">
    <!-- AMBIENT 300 K -->
    <g style="fill: #4ec9b0" transform="translate(188.799895 354.198281) rotate(-90) scale(0.07 -0.07)">
     <defs>
      <path id="DejaVuSansMono-42" d="M 1153 2228 
L 1153 519 
L 1900 519 
Q 2450 519 2684 711 
Q 2919 903 2919 1344 
Q 2919 1800 2672 2014 
Q 2425 2228 1900 2228 
L 1153 2228 
z
M 1153 4147 
L 1153 2741 
L 1888 2741 
Q 2344 2741 2548 2916 
Q 2753 3091 2753 3481 
Q 2753 3834 2551 3990 
Q 2350 4147 1888 4147 
L 1153 4147 
z
M 519 4666 
L 1900 4666 
Q 2616 4666 3003 4356 
Q 3391 4047 3391 3481 
Q 3391 3053 3186 2806 
Q 2981 2559 2572 2497 
Q 3031 2428 3292 2104 
Q 3553 1781 3553 1281 
Q 3553 647 3137 323 
Q 2722 0 1900 0 
L 519 0 
L 519 4666 
z
" transform="scale(0.015625)"/>
     </defs>
     <use xlink:href="#DejaVuSansMono-41"/>
     <use xlink:href="#DejaVuSansMono-4d" transform="translate(60.205078 0)"/>
     <use xlink:href="#DejaVuSansMono-42" transform="translate(120.410156 0)"/>
     <use xlink:href="#DejaVuSansMono-49" transform="translate(180.615234 0)"/>
     <use xlink:href="#DejaVuSansMono-45" transform="translate(240.820312 0)"/>
     <use xlink:href="#DejaVuSansMono-4e" transform="translate(301.025391 0)"/>
     <use xlink:href="#DejaVuSansMono-54" transform="translate(361.230469 0)"/>
     <use xlink:href="#DejaVuSansMono-20" transform="translate(421.435547 0)"/>
     <use xlink:href="#DejaVuSansMono-33" transform="translate(481.640625 0)"/>
     <use xlink:href="#DejaVuSansMono-30" transform="translate(541.845703 0)"/>
     <use xlink:href="#DejaVuSansMono-30" transform="translate(602.050781 0)"/>
     <use xlink:href="#DejaVuSansMono-20" transform="translate(662.255859 0)"/>
     <use xlink:href="#DejaVuSansMono-4b" transform="translate(722.460938 0)"/>
    </g>
   </g>
   <g id="text_15">
    <!-- STRUCTURAL CEILING 1000 K -->
    <g style="fill: #4ec9b0" transform="translate(336.475582 354.198281) rotate(-90) scale(0.07 -0.07)">
     <defs>
      <path id="DejaVuSansMono-53" d="M 3163 4506 
L 3163 3866 
Q 2875 4050 2586 4144 
Q 2297 4238 2003 4238 
Q 1556 4238 1297 4030 
Q 1038 3822 1038 3469 
Q 1038 3159 1208 2996 
Q 1378 2834 1844 2725 
L 2175 2650 
Q 2831 2497 3131 2169 
Q 3431 1841 3431 1275 
Q 3431 609 3018 259 
Q 2606 -91 1819 -91 
Q 1491 -91 1159 -20 
Q 828 50 494 191 
L 494 863 
Q 853 634 1173 528 
Q 1494 422 1819 422 
Q 2297 422 2562 636 
Q 2828 850 2828 1234 
Q 2828 1584 2645 1768 
Q 2463 1953 2009 2053 
L 1672 2131 
Q 1022 2278 728 2575 
Q 434 2872 434 3372 
Q 434 3997 854 4373 
Q 1275 4750 1972 4750 
Q 2241 4750 2537 4689 
Q 2834 4628 3163 4506 
z
" transform="scale(0.015625)"/>
      <path id="DejaVuSansMono-47" d="M 3450 384 
Q 3197 150 2880 29 
Q 2563 -91 2194 -91 
Q 1306 -91 812 545 
Q 319 1181 319 2328 
Q 319 3472 819 4111 
Q 1319 4750 2209 4750 
Q 2503 4750 2772 4667 
Q 3041 4584 3291 4416 
L 3291 3769 
Q 3038 4009 2772 4123 
Q 2506 4238 2209 4238 
Q 1594 4238 1286 3761 
Q 978 3284 978 2328 
Q 978 1356 1276 889 
Q 1575 422 2194 422 
Q 2403 422 2561 470 
Q 2719 519 2847 622 
L 2847 1875 
L 2169 1875 
L 2169 2394 
L 3450 2394 
L 3450 384 
z
" transform="scale(0.015625)"/>
     </defs>
     <use xlink:href="#DejaVuSansMono-53"/>
     <use xlink:href="#DejaVuSansMono-54" transform="translate(60.205078 0)"/>
     <use xlink:href="#DejaVuSansMono-52" transform="translate(120.410156 0)"/>
     <use xlink:href="#DejaVuSansMono-55" transform="translate(180.615234 0)"/>
     <use xlink:href="#DejaVuSansMono-43" transform="translate(240.820312 0)"/>
     <use xlink:href="#DejaVuSansMono-54" transform="translate(301.025391 0)"/>
     <use xlink:href="#DejaVuSansMono-55" transform="translate(361.230469 0)"/>
     <use xlink:href="#DejaVuSansMono-52" transform="translate(421.435547 0)"/>
     <use xlink:href="#DejaVuSansMono-41" transform="translate(481.640625 0)"/>
     <use xlink:href="#DejaVuSansMono-4c" transform="translate(541.845703 0)"/>
     <use xlink:href="#DejaVuSansMono-20" transform="translate(602.050781 0)"/>
     <use xlink:href="#DejaVuSansMono-43" transform="translate(662.255859 0)"/>
     <use xlink:href="#DejaVuSansMono-45" transform="translate(722.460938 0)"/>
     <use xlink:href="#DejaVuSansMono-49" transform="translate(782.666016 0)"/>
     <use xlink:href="#DejaVuSansMono-4c" transform="translate(842.871094 0)"/>
     <use xlink:href="#DejaVuSansMono-49" transform="translate(903.076172 0)"/>
     <use xlink:href="#DejaVuSansMono-4e" transform="translate(963.28125 0)"/>
     <use xlink:href="#DejaVuSansMono-47" transform="translate(1023.486328 0)"/>
     <use xlink:href="#DejaVuSansMono-20" transform="translate(1083.691406 0)"/>
     <use xlink:href="#DejaVuSansMono-31" transform="translate(1143.896484 0)"/>
     <use xlink:href="#DejaVuSansMono-30" transform="translate(1204.101562 0)"/>
     <use xlink:href="#DejaVuSansMono-30" transform="translate(1264.306641 0)"/>
     <use xlink:href="#DejaVuSansMono-30" transform="translate(1324.511719 0)"/>
     <use xlink:href="#DejaVuSansMono-20" transform="translate(1384.716797 0)"/>
     <use xlink:href="#DejaVuSansMono-4b" transform="translate(1444.921875 0)"/>
    </g>
   </g>
   <g id="text_16">
    <!-- TUNGSTEN MELT 2500 K -->
    <g style="fill: #f5a623" transform="translate(448.865049 354.198281) rotate(-90) scale(0.07 -0.07)">
     <use xlink:href="#DejaVuSansMono-54"/>
     <use xlink:href="#DejaVuSansMono-55" transform="translate(60.205078 0)"/>
     <use xlink:href="#DejaVuSansMono-4e" transform="translate(120.410156 0)"/>
     <use xlink:href="#DejaVuSansMono-47" transform="translate(180.615234 0)"/>
     <use xlink:href="#DejaVuSansMono-53" transform="translate(240.820312 0)"/>
     <use xlink:href="#DejaVuSansMono-54" transform="translate(301.025391 0)"/>
     <use xlink:href="#DejaVuSansMono-45" transform="translate(361.230469 0)"/>
     <use xlink:href="#DejaVuSansMono-4e" transform="translate(421.435547 0)"/>
     <use xlink:href="#DejaVuSansMono-20" transform="translate(481.640625 0)"/>
     <use xlink:href="#DejaVuSansMono-4d" transform="translate(541.845703 0)"/>
     <use xlink:href="#DejaVuSansMono-45" transform="translate(602.050781 0)"/>
     <use xlink:href="#DejaVuSansMono-4c" transform="translate(662.255859 0)"/>
     <use xlink:href="#DejaVuSansMono-54" transform="translate(722.460938 0)"/>
     <use xlink:href="#DejaVuSansMono-20" transform="translate(782.666016 0)"/>
     <use xlink:href="#DejaVuSansMono-32" transform="translate(842.871094 0)"/>
     <use xlink:href="#DejaVuSansMono-35" transform="translate(903.076172 0)"/>
     <use xlink:href="#DejaVuSansMono-30" transform="translate(963.28125 0)"/>
     <use xlink:href="#DejaVuSansMono-30" transform="translate(1023.486328 0)"/>
     <use xlink:href="#DejaVuSansMono-20" transform="translate(1083.691406 0)"/>
     <use xlink:href="#DejaVuSansMono-4b" transform="translate(1143.896484 0)"/>
    </g>
   </g>
   <g id="text_17">
    <!-- SOLAR EFFECTIVE 5800 K -->
    <g style="fill: #f5a623" transform="translate(552.089151 354.198281) rotate(-90) scale(0.07 -0.07)">
     <defs>
      <path id="DejaVuSansMono-46" d="M 728 4666 
L 3475 4666 
L 3475 4134 
L 1363 4134 
L 1363 2759 
L 3278 2759 
L 3278 2228 
L 1363 2228 
L 1363 0 
L 728 0 
L 728 4666 
z
" transform="scale(0.015625)"/>
      <path id="DejaVuSansMono-56" d="M 1925 531 
L 3022 4666 
L 3675 4666 
L 2309 0 
L 1544 0 
L 178 4666 
L 831 4666 
L 1925 531 
z
" transform="scale(0.015625)"/>
     </defs>
     <use xlink:href="#DejaVuSansMono-53"/>
     <use xlink:href="#DejaVuSansMono-4f" transform="translate(60.205078 0)"/>
     <use xlink:href="#DejaVuSansMono-4c" transform="translate(120.410156 0)"/>
     <use xlink:href="#DejaVuSansMono-41" transform="translate(180.615234 0)"/>
     <use xlink:href="#DejaVuSansMono-52" transform="translate(240.820312 0)"/>
     <use xlink:href="#DejaVuSansMono-20" transform="translate(301.025391 0)"/>
     <use xlink:href="#DejaVuSansMono-45" transform="translate(361.230469 0)"/>
     <use xlink:href="#DejaVuSansMono-46" transform="translate(421.435547 0)"/>
     <use xlink:href="#DejaVuSansMono-46" transform="translate(481.640625 0)"/>
     <use xlink:href="#DejaVuSansMono-45" transform="translate(541.845703 0)"/>
     <use xlink:href="#DejaVuSansMono-43" transform="translate(602.050781 0)"/>
     <use xlink:href="#DejaVuSansMono-54" transform="translate(662.255859 0)"/>
     <use xlink:href="#DejaVuSansMono-49" transform="translate(722.460938 0)"/>
     <use xlink:href="#DejaVuSansMono-56" transform="translate(782.666016 0)"/>
     <use xlink:href="#DejaVuSansMono-45" transform="translate(842.871094 0)"/>
     <use xlink:href="#DejaVuSansMono-20" transform="translate(903.076172 0)"/>
     <use xlink:href="#DejaVuSansMono-35" transform="translate(963.28125 0)"/>
     <use xlink:href="#DejaVuSansMono-38" transform="translate(1023.486328 0)"/>
     <use xlink:href="#DejaVuSansMono-30" transform="translate(1083.691406 0)"/>
     <use xlink:href="#DejaVuSansMono-30" transform="translate(1143.896484 0)"/>
     <use xlink:href="#DejaVuSansMono-20" transform="translate(1204.101562 0)"/>
     <use xlink:href="#DejaVuSansMono-4b" transform="translate(1264.306641 0)"/>
    </g>
   </g>
   <g id="text_18">
    <!-- STRUCTURAL -->
    <g style="fill: #2ecc71" transform="translate(115.976771 73.029031) scale(0.08 -0.08)">
     <use xlink:href="#DejaVuSansMono-53"/>
     <use xlink:href="#DejaVuSansMono-54" transform="translate(60.205078 0)"/>
     <use xlink:href="#DejaVuSansMono-52" transform="translate(120.410156 0)"/>
     <use xlink:href="#DejaVuSansMono-55" transform="translate(180.615234 0)"/>
     <use xlink:href="#DejaVuSansMono-43" transform="translate(240.820312 0)"/>
     <use xlink:href="#DejaVuSansMono-54" transform="translate(301.025391 0)"/>
     <use xlink:href="#DejaVuSansMono-55" transform="translate(361.230469 0)"/>
     <use xlink:href="#DejaVuSansMono-52" transform="translate(421.435547 0)"/>
     <use xlink:href="#DejaVuSansMono-41" transform="translate(481.640625 0)"/>
     <use xlink:href="#DejaVuSansMono-4c" transform="translate(541.845703 0)"/>
    </g>
    <!-- LIMIT -->
    <g style="fill: #2ecc71" transform="translate(115.976771 82.038281) scale(0.08 -0.08)">
     <use xlink:href="#DejaVuSansMono-4c"/>
     <use xlink:href="#DejaVuSansMono-49" transform="translate(60.205078 0)"/>
     <use xlink:href="#DejaVuSansMono-4d" transform="translate(120.410156 0)"/>
     <use xlink:href="#DejaVuSansMono-49" transform="translate(180.615234 0)"/>
     <use xlink:href="#DejaVuSansMono-54" transform="translate(240.820312 0)"/>
    </g>
   </g>
   <g id="text_19">
    <!-- F-3.2  HULL RADIATED POWER vs TEMPERATURE  —  STEFAN-BOLTZMANN -->
    <g style="fill: #ffffff" transform="translate(89.687969 15.558281) scale(0.11 -0.11)">
     <defs>
      <path id="DejaVuSansMono-Bold-46" d="M 3475 3853 
L 1491 3853 
L 1491 2847 
L 3297 2847 
L 3297 2034 
L 1491 2034 
L 1491 0 
L 569 0 
L 569 4666 
L 3475 4666 
L 3475 3853 
z
" transform="scale(0.015625)"/>
      <path id="DejaVuSansMono-Bold-2d" d="M 941 2297 
L 2913 2297 
L 2913 1388 
L 941 1388 
L 941 2297 
z
" transform="scale(0.015625)"/>
      <path id="DejaVuSansMono-Bold-33" d="M 1716 2088 
L 1222 2088 
L 1222 2900 
L 1716 2900 
Q 2059 2900 2248 3036 
Q 2438 3172 2438 3419 
Q 2438 3678 2248 3823 
Q 2059 3969 1716 3969 
Q 1453 3969 1153 3903 
Q 853 3838 531 3713 
L 531 4550 
Q 853 4647 1165 4698 
Q 1478 4750 1766 4750 
Q 2503 4750 2915 4428 
Q 3328 4106 3328 3541 
Q 3328 3125 3090 2861 
Q 2853 2597 2413 2516 
Q 2913 2428 3175 2117 
Q 3438 1806 3438 1300 
Q 3438 622 3003 265 
Q 2569 -91 1741 -91 
Q 1388 -91 1045 -31 
Q 703 28 391 141 
L 391 997 
Q 684 850 1025 773 
Q 1366 697 1741 697 
Q 2116 697 2334 870 
Q 2553 1044 2553 1338 
Q 2553 1697 2334 1892 
Q 2116 2088 1716 2088 
z
" transform="scale(0.015625)"/>
      <path id="DejaVuSansMono-Bold-2e" d="M 1403 1147 
L 2444 1147 
L 2444 0 
L 1403 0 
L 1403 1147 
z
" transform="scale(0.015625)"/>
      <path id="DejaVuSansMono-Bold-32" d="M 1356 813 
L 3322 813 
L 3322 0 
L 359 0 
L 359 788 
L 859 1319 
Q 1750 2266 1941 2484 
Q 2175 2753 2278 2961 
Q 2381 3169 2381 3372 
Q 2381 3684 2192 3854 
Q 2003 4025 1656 4025 
Q 1409 4025 1101 3926 
Q 794 3828 459 3641 
L 459 4500 
Q 794 4622 1114 4686 
Q 1434 4750 1728 4750 
Q 2469 4750 2892 4404 
Q 3316 4059 3316 3463 
Q 3316 3188 3223 2947 
Q 3131 2706 2906 2413 
Q 2741 2200 1997 1456 
Q 1594 1053 1356 813 
z
" transform="scale(0.015625)"/>
      <path id="DejaVuSansMono-Bold-20" transform="scale(0.015625)"/>
      <path id="DejaVuSansMono-Bold-48" d="M 428 4666 
L 1350 4666 
L 1350 2888 
L 2503 2888 
L 2503 4666 
L 3425 4666 
L 3425 0 
L 2503 0 
L 2503 2075 
L 1350 2075 
L 1350 0 
L 428 0 
L 428 4666 
z
" transform="scale(0.015625)"/>
      <path id="DejaVuSansMono-Bold-55" d="M 331 1722 
L 331 4666 
L 1253 4666 
L 1253 1491 
Q 1253 1141 1431 942 
Q 1609 744 1925 744 
Q 2241 744 2419 942 
Q 2597 1141 2597 1491 
L 2597 4666 
L 3519 4666 
L 3519 1722 
Q 3519 772 3141 340 
Q 2763 -91 1925 -91 
Q 1091 -91 711 340 
Q 331 772 331 1722 
z
" transform="scale(0.015625)"/>
      <path id="DejaVuSansMono-Bold-4c" d="M 703 0 
L 703 4666 
L 1625 4666 
L 1625 813 
L 3597 813 
L 3597 0 
L 703 0 
z
" transform="scale(0.015625)"/>
      <path id="DejaVuSansMono-Bold-52" d="M 2522 2203 
Q 2659 2175 2761 2073 
Q 2863 1972 3009 1678 
L 3853 0 
L 2841 0 
L 2278 1178 
Q 2253 1228 2213 1316 
Q 1966 1844 1631 1844 
L 1338 1844 
L 1338 0 
L 416 0 
L 416 4666 
L 1747 4666 
Q 2647 4666 3039 4347 
Q 3431 4028 3431 3309 
Q 3431 2828 3197 2543 
Q 2963 2259 2522 2203 
z
M 1338 3891 
L 1338 2619 
L 1772 2619 
Q 2150 2619 2314 2767 
Q 2478 2916 2478 3256 
Q 2478 3597 2315 3744 
Q 2153 3891 1772 3891 
L 1338 3891 
z
" transform="scale(0.015625)"/>
      <path id="DejaVuSansMono-Bold-41" d="M 1925 3822 
L 1491 1913 
L 2363 1913 
L 1925 3822 
z
M 1363 4666 
L 2491 4666 
L 3750 0 
L 2828 0 
L 2541 1153 
L 1306 1153 
L 1025 0 
L 103 0 
L 1363 4666 
z
" transform="scale(0.015625)"/>
      <path id="DejaVuSansMono-Bold-44" d="M 1350 3834 
L 1350 831 
L 1600 831 
Q 2144 831 2375 1173 
Q 2606 1516 2606 2338 
Q 2606 3153 2375 3493 
Q 2144 3834 1600 3834 
L 1350 3834 
z
M 428 4666 
L 1416 4666 
Q 2559 4666 3062 4120 
Q 3566 3575 3566 2338 
Q 3566 1097 3062 548 
Q 2559 0 1416 0 
L 428 0 
L 428 4666 
z
" transform="scale(0.015625)"/>
      <path id="DejaVuSansMono-Bold-49" d="M 538 3853 
L 538 4666 
L 3316 4666 
L 3316 3853 
L 2388 3853 
L 2388 813 
L 3316 813 
L 3316 0 
L 538 0 
L 538 813 
L 1466 813 
L 1466 3853 
L 538 3853 
z
" transform="scale(0.015625)"/>
      <path id="DejaVuSansMono-Bold-54" d="M 2388 0 
L 1466 0 
L 1466 3859 
L 281 3859 
L 281 4666 
L 3572 4666 
L 3572 3859 
L 2388 3859 
L 2388 0 
z
" transform="scale(0.015625)"/>
      <path id="DejaVuSansMono-Bold-45" d="M 3431 0 
L 525 0 
L 525 4666 
L 3431 4666 
L 3431 3853 
L 1447 3853 
L 1447 2847 
L 3244 2847 
L 3244 2034 
L 1447 2034 
L 1447 813 
L 3431 813 
L 3431 0 
z
" transform="scale(0.015625)"/>
      <path id="DejaVuSansMono-Bold-50" d="M 1428 3891 
L 1428 2522 
L 1806 2522 
Q 2259 2522 2442 2675 
Q 2625 2828 2625 3206 
Q 2625 3584 2442 3737 
Q 2259 3891 1806 3891 
L 1428 3891 
z
M 506 4666 
L 1772 4666 
Q 2738 4666 3161 4322 
Q 3584 3978 3584 3206 
Q 3584 2434 3161 2090 
Q 2738 1747 1772 1747 
L 1428 1747 
L 1428 0 
L 506 0 
L 506 4666 
z
" transform="scale(0.015625)"/>
      <path id="DejaVuSansMono-Bold-4f" d="M 1925 3922 
Q 1572 3922 1409 3545 
Q 1247 3169 1247 2328 
Q 1247 1491 1409 1114 
Q 1572 738 1925 738 
Q 2281 738 2443 1114 
Q 2606 1491 2606 2328 
Q 2606 3169 2443 3545 
Q 2281 3922 1925 3922 
z
M 288 2328 
Q 288 3525 702 4137 
Q 1116 4750 1925 4750 
Q 2738 4750 3152 4137 
Q 3566 3525 3566 2328 
Q 3566 1134 3152 521 
Q 2738 -91 1925 -91 
Q 1116 -91 702 521 
Q 288 1134 288 2328 
z
" transform="scale(0.015625)"/>
      <path id="DejaVuSansMono-Bold-57" d="M 0 4666 
L 806 4666 
L 1141 1241 
L 1544 3456 
L 2309 3456 
L 2778 1241 
L 3041 4666 
L 3853 4666 
L 3316 0 
L 2456 0 
L 1925 2450 
L 1428 0 
L 575 0 
L 0 4666 
z
" transform="scale(0.015625)"/>
      <path id="DejaVuSansMono-Bold-76" d="M 3603 3500 
L 2491 0 
L 1363 0 
L 250 3500 
L 1178 3500 
L 1925 769 
L 2675 3500 
L 3603 3500 
z
" transform="scale(0.015625)"/>
      <path id="DejaVuSansMono-Bold-73" d="M 3097 3391 
L 3097 2591 
Q 2844 2753 2570 2836 
Q 2297 2919 2022 2919 
Q 1716 2919 1559 2830 
Q 1403 2741 1403 2566 
Q 1403 2316 2072 2159 
L 2106 2150 
L 2369 2088 
Q 2869 1969 3101 1705 
Q 3334 1441 3334 991 
Q 3334 450 2979 179 
Q 2625 -91 1913 -91 
Q 1597 -91 1265 -36 
Q 934 19 594 128 
L 594 928 
Q 897 756 1211 665 
Q 1525 575 1819 575 
Q 2141 575 2306 669 
Q 2472 763 2472 941 
Q 2472 1116 2355 1209 
Q 2238 1303 1797 1409 
L 1544 1466 
Q 1019 1584 778 1837 
Q 538 2091 538 2516 
Q 538 3022 903 3303 
Q 1269 3584 1931 3584 
Q 2228 3584 2523 3536 
Q 2819 3488 3097 3391 
z
" transform="scale(0.015625)"/>
      <path id="DejaVuSansMono-Bold-4d" d="M 269 4666 
L 1369 4666 
L 1925 2619 
L 2478 4666 
L 3584 4666 
L 3584 0 
L 2791 0 
L 2791 3738 
L 2297 1697 
L 1563 1697 
L 1063 3738 
L 1063 0 
L 269 0 
L 269 4666 
z
" transform="scale(0.015625)"/>
      <path id="DejaVuSansMono-Bold-2014" d="M 0 2156 
L 3853 2156 
L 3853 1388 
L 0 1388 
L 0 2156 
z
" transform="scale(0.015625)"/>
      <path id="DejaVuSansMono-Bold-53" d="M 1594 2047 
Q 897 2313 650 2605 
Q 403 2897 403 3391 
Q 403 4025 809 4387 
Q 1216 4750 1925 4750 
Q 2247 4750 2569 4676 
Q 2891 4603 3206 4459 
L 3206 3559 
Q 2909 3769 2603 3878 
Q 2297 3988 1997 3988 
Q 1663 3988 1484 3853 
Q 1306 3719 1306 3469 
Q 1306 3275 1436 3148 
Q 1566 3022 1978 2869 
L 2375 2719 
Q 2938 2513 3203 2172 
Q 3469 1831 3469 1313 
Q 3469 606 3051 257 
Q 2634 -91 1791 -91 
Q 1444 -91 1095 -8 
Q 747 75 422 238 
L 422 1191 
Q 791 928 1136 800 
Q 1481 672 1819 672 
Q 2159 672 2346 826 
Q 2534 981 2534 1259 
Q 2534 1469 2409 1626 
Q 2284 1784 2047 1875 
L 1594 2047 
z
" transform="scale(0.015625)"/>
      <path id="DejaVuSansMono-Bold-4e" d="M 372 4666 
L 1363 4666 
L 2663 1275 
L 2663 4666 
L 3475 4666 
L 3475 0 
L 2491 0 
L 1184 3391 
L 1184 0 
L 372 0 
L 372 4666 
z
" transform="scale(0.015625)"/>
      <path id="DejaVuSansMono-Bold-42" d="M 1281 2119 
L 1281 738 
L 1894 738 
Q 2334 738 2511 888 
Q 2688 1038 2688 1409 
Q 2688 1788 2503 1953 
Q 2319 2119 1894 2119 
L 1281 2119 
z
M 1281 3938 
L 1281 2853 
L 1894 2853 
Q 2244 2853 2392 2978 
Q 2541 3103 2541 3391 
Q 2541 3678 2389 3808 
Q 2238 3938 1894 3938 
L 1281 3938 
z
M 391 4672 
L 1894 4672 
Q 2672 4672 3064 4376 
Q 3456 4081 3456 3494 
Q 3456 3044 3225 2791 
Q 2994 2538 2547 2497 
Q 3081 2444 3351 2137 
Q 3622 1831 3622 1281 
Q 3622 606 3215 303 
Q 2809 0 1894 0 
L 391 0 
L 391 4672 
z
" transform="scale(0.015625)"/>
      <path id="DejaVuSansMono-Bold-5a" d="M 428 4666 
L 3584 4666 
L 3584 3903 
L 1422 813 
L 3628 813 
L 3628 0 
L 359 0 
L 359 763 
L 2456 3853 
L 428 3853 
L 428 4666 
z
" transform="scale(0.015625)"/>
     </defs>
     <use xlink:href="#DejaVuSansMono-Bold-46"/>
     <use xlink:href="#DejaVuSansMono-Bold-2d" transform="translate(60.205078 0)"/>
     <use xlink:href="#DejaVuSansMono-Bold-33" transform="translate(120.410156 0)"/>
     <use xlink:href="#DejaVuSansMono-Bold-2e" transform="translate(180.615234 0)"/>
     <use xlink:href="#DejaVuSansMono-Bold-32" transform="translate(240.820312 0)"/>
     <use xlink:href="#DejaVuSansMono-Bold-20" transform="translate(301.025391 0)"/>
     <use xlink:href="#DejaVuSansMono-Bold-20" transform="translate(361.230469 0)"/>
     <use xlink:href="#DejaVuSansMono-Bold-48" transform="translate(421.435547 0)"/>
     <use xlink:href="#DejaVuSansMono-Bold-55" transform="translate(481.640625 0)"/>
     <use xlink:href="#DejaVuSansMono-Bold-4c" transform="translate(541.845703 0)"/>
     <use xlink:href="#DejaVuSansMono-Bold-4c" transform="translate(602.050781 0)"/>
     <use xlink:href="#DejaVuSansMono-Bold-20" transform="translate(662.255859 0)"/>
     <use xlink:href="#DejaVuSansMono-Bold-52" transform="translate(722.460938 0)"/>
     <use xlink:href="#DejaVuSansMono-Bold-41" transform="translate(782.666016 0)"/>
     <use xlink:href="#DejaVuSansMono-Bold-44" transform="translate(842.871094 0)"/>
     <use xlink:href="#DejaVuSansMono-Bold-49" transform="translate(903.076172 0)"/>
     <use xlink:href="#DejaVuSansMono-Bold-41" transform="translate(963.28125 0)"/>
     <use xlink:href="#DejaVuSansMono-Bold-54" transform="translate(1023.486328 0)"/>
     <use xlink:href="#DejaVuSansMono-Bold-45" transform="translate(1083.691406 0)"/>
     <use xlink:href="#DejaVuSansMono-Bold-44" transform="translate(1143.896484 0)"/>
     <use xlink:href="#DejaVuSansMono-Bold-20" transform="translate(1204.101562 0)"/>
     <use xlink:href="#DejaVuSansMono-Bold-50" transform="translate(1264.306641 0)"/>
     <use xlink:href="#DejaVuSansMono-Bold-4f" transform="translate(1324.511719 0)"/>
     <use xlink:href="#DejaVuSansMono-Bold-57" transform="translate(1384.716797 0)"/>
     <use xlink:href="#DejaVuSansMono-Bold-45" transform="translate(1444.921875 0)"/>
     <use xlink:href="#DejaVuSansMono-Bold-52" transform="translate(1505.126953 0)"/>
     <use xlink:href="#DejaVuSansMono-Bold-20" transform="translate(1565.332031 0)"/>
     <use xlink:href="#DejaVuSansMono-Bold-76" transform="translate(1625.537109 0)"/>
     <use xlink:href="#DejaVuSansMono-Bold-73" transform="translate(1685.742188 0)"/>
     <use xlink:href="#DejaVuSansMono-Bold-20" transform="translate(1745.947266 0)"/>
     <use xlink:href="#DejaVuSansMono-Bold-54" transform="translate(1806.152344 0)"/>
     <use xlink:href="#DejaVuSansMono-Bold-45" transform="translate(1866.357422 0)"/>
     <use xlink:href="#DejaVuSansMono-Bold-4d" transform="translate(1926.5625 0)"/>
     <use xlink:href="#DejaVuSansMono-Bold-50" transform="translate(1986.767578 0)"/>
     <use xlink:href="#DejaVuSansMono-Bold-45" transform="translate(2046.972656 0)"/>
     <use xlink:href="#DejaVuSansMono-Bold-52" transform="translate(2107.177734 0)"/>
     <use xlink:href="#DejaVuSansMono-Bold-41" transform="translate(2167.382812 0)"/>
     <use xlink:href="#DejaVuSansMono-Bold-54" transform="translate(2227.587891 0)"/>
     <use xlink:href="#DejaVuSansMono-Bold-55" transform="translate(2287.792969 0)"/>
     <use xlink:href="#DejaVuSansMono-Bold-52" transform="translate(2347.998047 0)"/>
     <use xlink:href="#DejaVuSansMono-Bold-45" transform="translate(2408.203125 0)"/>
     <use xlink:href="#DejaVuSansMono-Bold-20" transform="translate(2468.408203 0)"/>
     <use xlink:href="#DejaVuSansMono-Bold-20" transform="translate(2528.613281 0)"/>
     <use xlink:href="#DejaVuSansMono-Bold-2014" transform="translate(2588.818359 0)"/>
     <use xlink:href="#DejaVuSansMono-Bold-20" transform="translate(2649.023438 0)"/>
     <use xlink:href="#DejaVuSansMono-Bold-20" transform="translate(2709.228516 0)"/>
     <use xlink:href="#DejaVuSansMono-Bold-53" transform="translate(2769.433594 0)"/>
     <use xlink:href="#DejaVuSansMono-Bold-54" transform="translate(2829.638672 0)"/>
     <use xlink:href="#DejaVuSansMono-Bold-45" transform="translate(2889.84375 0)"/>
     <use xlink:href="#DejaVuSansMono-Bold-46" transform="translate(2950.048828 0)"/>
     <use xlink:href="#DejaVuSansMono-Bold-41" transform="translate(3010.253906 0)"/>
     <use xlink:href="#DejaVuSansMono-Bold-4e" transform="translate(3070.458984 0)"/>
     <use xlink:href="#DejaVuSansMono-Bold-2d" transform="translate(3130.664062 0)"/>
     <use xlink:href="#DejaVuSansMono-Bold-42" transform="translate(3190.869141 0)"/>
     <use xlink:href="#DejaVuSansMono-Bold-4f" transform="translate(3251.074219 0)"/>
     <use xlink:href="#DejaVuSansMono-Bold-4c" transform="translate(3311.279297 0)"/>
     <use xlink:href="#DejaVuSansMono-Bold-54" transform="translate(3371.484375 0)"/>
     <use xlink:href="#DejaVuSansMono-Bold-5a" transform="translate(3431.689453 0)"/>
     <use xlink:href="#DejaVuSansMono-Bold-4d" transform="translate(3491.894531 0)"/>
     <use xlink:href="#DejaVuSansMono-Bold-41" transform="translate(3552.099609 0)"/>
     <use xlink:href="#DejaVuSansMono-Bold-4e" transform="translate(3612.304688 0)"/>
     <use xlink:href="#DejaVuSansMono-Bold-4e" transform="translate(3672.509766 0)"/>
    </g>
   </g>
  </g>
  <g id="text_20">
   <!-- F-3.2 -->
   <g style="fill: #f0e6d2" transform="translate(583.329531 395.9425) scale(0.07 -0.07)">
    <use xlink:href="#DejaVuSansMono-46"/>
    <use xlink:href="#DejaVuSansMono-2d" transform="translate(60.205078 0)"/>
    <use xlink:href="#DejaVuSansMono-33" transform="translate(120.410156 0)"/>
    <use xlink:href="#DejaVuSansMono-2e" transform="translate(180.615234 0)"/>
    <use xlink:href="#DejaVuSansMono-32" transform="translate(240.820312 0)"/>
   </g>
  </g>
 </g>
 <defs>
  <clipPath id="p47c8944978">
   <rect x="43.880625" y="21.558281" width="502.2" height="332.64"/>
  </clipPath>
 </defs>
 <defs>
  <pattern id="hac78c29c5a" patternUnits="userSpaceOnUse" x="0" y="0" width="72" height="72">
   <rect x="0" y="0" width="73" height="73" fill="#2ecc71"/>
   <path d="M -36 36 
L 36 -36 
M -30 42 
L 42 -30 
M -24 48 
L 48 -24 
M -18 54 
L 54 -18 
M -12 60 
L 60 -12 
M -6 66 
L 66 -6 
M 0 72 
L 72 0 
M 6 78 
L 78 6 
M 12 84 
L 84 12 
M 18 90 
L 90 18 
M 24 96 
L 96 24 
M 30 102 
L 102 30 
M 36 108 
L 108 36 
" style="fill: #2ecc71; stroke: #2ecc71; stroke-width: 1.0; stroke-linecap: butt; stroke-linejoin: miter; stroke-opacity: 0.07"/>
  </pattern>
 </defs>
</svg>
