<?xml version="1.0" encoding="utf-8" standalone="no"?>
<!DOCTYPE svg PUBLIC "-//W3C//DTD SVG 1.1//EN"
  "http://www.w3.org/Graphics/SVG/1.1/DTD/svg11.dtd">
<svg xmlns:xlink="http://www.w3.org/1999/xlink" width="731.22375pt" height="341.958281pt" viewBox="0 0 731.22375 341.958281" xmlns="http://www.w3.org/2000/svg" version="1.1">
 <metadata>
  <rdf:RDF xmlns:dc="http://purl.org/dc/elements/1.1/" xmlns:cc="http://creativecommons.org/ns#" xmlns:rdf="http://www.w3.org/1999/02/22-rdf-syntax-ns#">
   <cc:Work>
    <dc:type rdf:resource="http://purl.org/dc/dcmitype/StillImage"/>
    <dc:date>2026-04-26T02:54:47.299623</dc:date>
    <dc:format>image/svg+xml</dc:format>
    <dc:creator>
     <cc:Agent>
      <dc:title>Matplotlib v3.10.9, https://matplotlib.org/</dc:title>
     </cc:Agent>
    </dc:creator>
   </cc:Work>
  </rdf:RDF>
 </metadata>
 <defs>
  <style type="text/css">*{stroke-linejoin: round; stroke-linecap: butt}</style>
 </defs>
 <g id="figure_1">
  <g id="patch_1">
   <path d="M 0 341.958281 
L 731.22375 341.958281 
L 731.22375 0 
L 0 0 
z
" style="fill: #0a0e1a"/>
  </g>
  <g id="axes_1">
   <g id="patch_2">
    <path d="M 163.50375 298.758281 
L 665.70375 298.758281 
L 665.70375 21.558281 
L 163.50375 21.558281 
z
" style="fill: #0a0e1a"/>
   </g>
   <g id="patch_3">
    <path d="M -135604.020564 286.158281 
L 618.934906 286.158281 
L 618.934906 233.10565 
L -135604.020564 233.10565 
z
" clip-path="url(#p78c288cac4)" style="fill: #e74c3c; stroke: #ffffff; stroke-linejoin: miter"/>
   </g>
   <g id="patch_4">
    <path d="M -135604.020564 219.842492 
L 483.010773 219.842492 
L 483.010773 166.78986 
L -135604.020564 166.78986 
z
" clip-path="url(#p78c288cac4)" style="fill: #f5a623; stroke: #ffffff; stroke-linejoin: miter"/>
   </g>
   <g id="patch_5">
    <path d="M -135604.020564 153.526702 
L 418.076176 153.526702 
L 418.076176 100.474071 
L -135604.020564 100.474071 
z
" clip-path="url(#p78c288cac4)" style="fill: #4ec9b0; stroke: #ffffff; stroke-linejoin: miter"/>
   </g>
   <g id="patch_6">
    <path d="M -135604.020564 87.210913 
L 229.641321 87.210913 
L 229.641321 34.158281 
L -135604.020564 34.158281 
z
" clip-path="url(#p78c288cac4)" style="fill: #2ecc71; stroke: #ffffff; stroke-linejoin: miter"/>
   </g>
   <g id="matplotlib.axis_1">
    <g id="xtick_1">
     <g id="line2d_1">
      <path d="M 163.50375 298.758281 
L 163.50375 21.558281 
" clip-path="url(#p78c288cac4)" style="fill: none; stroke-dasharray: 0.8,1.32; stroke-dashoffset: 0; stroke: #6d7380; stroke-opacity: 0.25; stroke-width: 0.8"/>
     </g>
     <g id="line2d_2">
      <defs>
       <path id="m7866747ef3" d="M 0 0 
L 0 3.5 
" style="stroke: #f0e6d2; stroke-width: 0.8"/>
      </defs>
      <g>
       <use xlink:href="#m7866747ef3" x="163.50375" y="298.758281" style="fill: #f0e6d2; stroke: #f0e6d2; stroke-width: 0.8"/>
      </g>
     </g>
     <g id="text_1">
      <!-- $\mathdefault{10^{0}}$ -->
      <g style="fill: #f0e6d2" transform="translate(156.82375 311.879531) scale(0.08 -0.08)">
       <defs>
        <path id="DejaVuSansMono-31" d="M 844 531 
L 1825 531 
L 1825 4097 
L 769 3859 
L 769 4434 
L 1819 4666 
L 2450 4666 
L 2450 531 
L 3419 531 
L 3419 0 
L 844 0 
L 844 531 
z
" transform="scale(0.015625)"/>
        <path id="DejaVuSansMono-30" d="M 1509 2344 
Q 1509 2516 1629 2641 
Q 1750 2766 1919 2766 
Q 2094 2766 2219 2641 
Q 2344 2516 2344 2344 
Q 2344 2169 2220 2047 
Q 2097 1925 1919 1925 
Q 1744 1925 1626 2044 
Q 1509 2163 1509 2344 
z
M 1925 4250 
Q 1484 4250 1267 3775 
Q 1050 3300 1050 2328 
Q 1050 1359 1267 884 
Q 1484 409 1925 409 
Q 2369 409 2586 884 
Q 2803 1359 2803 2328 
Q 2803 3300 2586 3775 
Q 2369 4250 1925 4250 
z
M 1925 4750 
Q 2672 4750 3055 4137 
Q 3438 3525 3438 2328 
Q 3438 1134 3055 521 
Q 2672 -91 1925 -91 
Q 1178 -91 797 521 
Q 416 1134 416 2328 
Q 416 3525 797 4137 
Q 1178 4750 1925 4750 
z
" transform="scale(0.015625)"/>
       </defs>
       <use xlink:href="#DejaVuSansMono-31" transform="translate(0 0.765625)"/>
       <use xlink:href="#DejaVuSansMono-30" transform="translate(60.205078 0.765625)"/>
       <use xlink:href="#DejaVuSansMono-30" transform="translate(121.367188 39.046875) scale(0.7)"/>
      </g>
     </g>
    </g>
    <g id="xtick_2">
     <g id="line2d_3">
      <path d="M 299.271274 298.758281 
L 299.271274 21.558281 
" clip-path="url(#p78c288cac4)" style="fill: none; stroke-dasharray: 0.8,1.32; stroke-dashoffset: 0; stroke: #6d7380; stroke-opacity: 0.25; stroke-width: 0.8"/>
     </g>
     <g id="line2d_4">
      <g>
       <use xlink:href="#m7866747ef3" x="299.271274" y="298.758281" style="fill: #f0e6d2; stroke: #f0e6d2; stroke-width: 0.8"/>
      </g>
     </g>
     <g id="text_2">
      <!-- $\mathdefault{10^{1}}$ -->
      <g style="fill: #f0e6d2" transform="translate(292.591274 311.879531) scale(0.08 -0.08)">
       <use xlink:href="#DejaVuSansMono-31" transform="translate(0 0.684375)"/>
       <use xlink:href="#DejaVuSansMono-30" transform="translate(60.205078 0.684375)"/>
       <use xlink:href="#DejaVuSansMono-31" transform="translate(121.367188 38.965625) scale(0.7)"/>
      </g>
     </g>
    </g>
    <g id="xtick_3">
     <g id="line2d_5">
      <path d="M 435.038799 298.758281 
L 435.038799 21.558281 
" clip-path="url(#p78c288cac4)" style="fill: none; stroke-dasharray: 0.8,1.32; stroke-dashoffset: 0; stroke: #6d7380; stroke-opacity: 0.25; stroke-width: 0.8"/>
     </g>
     <g id="line2d_6">
      <g>
       <use xlink:href="#m7866747ef3" x="435.038799" y="298.758281" style="fill: #f0e6d2; stroke: #f0e6d2; stroke-width: 0.8"/>
      </g>
     </g>
     <g id="text_3">
      <!-- $\mathdefault{10^{2}}$ -->
      <g style="fill: #f0e6d2" transform="translate(428.358799 311.879531) scale(0.08 -0.08)">
       <defs>
        <path id="DejaVuSansMono-32" d="M 1166 531 
L 3309 531 
L 3309 0 
L 475 0 
L 475 531 
Q 1059 1147 1496 1619 
Q 1934 2091 2100 2284 
Q 2413 2666 2522 2902 
Q 2631 3138 2631 3384 
Q 2631 3775 2401 3997 
Q 2172 4219 1772 4219 
Q 1488 4219 1175 4116 
Q 863 4013 513 3803 
L 513 4441 
Q 834 4594 1145 4672 
Q 1456 4750 1759 4750 
Q 2444 4750 2861 4386 
Q 3278 4022 3278 3431 
Q 3278 3131 3139 2831 
Q 3000 2531 2688 2169 
Q 2513 1966 2180 1606 
Q 1847 1247 1166 531 
z
" transform="scale(0.015625)"/>
       </defs>
       <use xlink:href="#DejaVuSansMono-31" transform="translate(0 0.765625)"/>
       <use xlink:href="#DejaVuSansMono-30" transform="translate(60.205078 0.765625)"/>
       <use xlink:href="#DejaVuSansMono-32" transform="translate(121.367188 39.046875) scale(0.7)"/>
      </g>
     </g>
    </g>
    <g id="xtick_4">
     <g id="line2d_7">
      <path d="M 570.806323 298.758281 
L 570.806323 21.558281 
" clip-path="url(#p78c288cac4)" style="fill: none; stroke-dasharray: 0.8,1.32; stroke-dashoffset: 0; stroke: #6d7380; stroke-opacity: 0.25; stroke-width: 0.8"/>
     </g>
     <g id="line2d_8">
      <g>
       <use xlink:href="#m7866747ef3" x="570.806323" y="298.758281" style="fill: #f0e6d2; stroke: #f0e6d2; stroke-width: 0.8"/>
      </g>
     </g>
     <g id="text_4">
      <!-- $\mathdefault{10^{3}}$ -->
      <g style="fill: #f0e6d2" transform="translate(564.126323 311.879531) scale(0.08 -0.08)">
       <defs>
        <path id="DejaVuSansMono-33" d="M 2425 2497 
Q 2884 2375 3128 2064 
Q 3372 1753 3372 1288 
Q 3372 644 2939 276 
Q 2506 -91 1741 -91 
Q 1419 -91 1084 -31 
Q 750 28 428 141 
L 428 769 
Q 747 603 1056 522 
Q 1366 441 1672 441 
Q 2191 441 2469 675 
Q 2747 909 2747 1350 
Q 2747 1756 2469 1995 
Q 2191 2234 1716 2234 
L 1234 2234 
L 1234 2753 
L 1716 2753 
Q 2150 2753 2394 2943 
Q 2638 3134 2638 3475 
Q 2638 3834 2411 4026 
Q 2184 4219 1766 4219 
Q 1488 4219 1191 4156 
Q 894 4094 569 3969 
L 569 4550 
Q 947 4650 1242 4700 
Q 1538 4750 1766 4750 
Q 2447 4750 2855 4408 
Q 3263 4066 3263 3500 
Q 3263 3116 3048 2859 
Q 2834 2603 2425 2497 
z
" transform="scale(0.015625)"/>
       </defs>
       <use xlink:href="#DejaVuSansMono-31" transform="translate(0 0.765625)"/>
       <use xlink:href="#DejaVuSansMono-30" transform="translate(60.205078 0.765625)"/>
       <use xlink:href="#DejaVuSansMono-33" transform="translate(121.367188 39.046875) scale(0.7)"/>
      </g>
     </g>
    </g>
    <g id="xtick_5">
     <g id="line2d_9">
      <defs>
       <path id="m6170232241" d="M 0 0 
L 0 2 
" style="stroke: #f0e6d2; stroke-width: 0.6"/>
      </defs>
      <g>
       <use xlink:href="#m6170232241" x="204.373847" y="298.758281" style="fill: #f0e6d2; stroke: #f0e6d2; stroke-width: 0.6"/>
      </g>
     </g>
    </g>
    <g id="xtick_6">
     <g id="line2d_10">
      <g>
       <use xlink:href="#m6170232241" x="228.281322" y="298.758281" style="fill: #f0e6d2; stroke: #f0e6d2; stroke-width: 0.6"/>
      </g>
     </g>
    </g>
    <g id="xtick_7">
     <g id="line2d_11">
      <g>
       <use xlink:href="#m6170232241" x="245.243945" y="298.758281" style="fill: #f0e6d2; stroke: #f0e6d2; stroke-width: 0.6"/>
      </g>
     </g>
    </g>
    <g id="xtick_8">
     <g id="line2d_12">
      <g>
       <use xlink:href="#m6170232241" x="258.401177" y="298.758281" style="fill: #f0e6d2; stroke: #f0e6d2; stroke-width: 0.6"/>
      </g>
     </g>
    </g>
    <g id="xtick_9">
     <g id="line2d_13">
      <g>
       <use xlink:href="#m6170232241" x="269.151419" y="298.758281" style="fill: #f0e6d2; stroke: #f0e6d2; stroke-width: 0.6"/>
      </g>
     </g>
    </g>
    <g id="xtick_10">
     <g id="line2d_14">
      <g>
       <use xlink:href="#m6170232241" x="278.240619" y="298.758281" style="fill: #f0e6d2; stroke: #f0e6d2; stroke-width: 0.6"/>
      </g>
     </g>
    </g>
    <g id="xtick_11">
     <g id="line2d_15">
      <g>
       <use xlink:href="#m6170232241" x="286.114042" y="298.758281" style="fill: #f0e6d2; stroke: #f0e6d2; stroke-width: 0.6"/>
      </g>
     </g>
    </g>
    <g id="xtick_12">
     <g id="line2d_16">
      <g>
       <use xlink:href="#m6170232241" x="293.058893" y="298.758281" style="fill: #f0e6d2; stroke: #f0e6d2; stroke-width: 0.6"/>
      </g>
     </g>
    </g>
    <g id="xtick_13">
     <g id="line2d_17">
      <g>
       <use xlink:href="#m6170232241" x="340.141372" y="298.758281" style="fill: #f0e6d2; stroke: #f0e6d2; stroke-width: 0.6"/>
      </g>
     </g>
    </g>
    <g id="xtick_14">
     <g id="line2d_18">
      <g>
       <use xlink:href="#m6170232241" x="364.048846" y="298.758281" style="fill: #f0e6d2; stroke: #f0e6d2; stroke-width: 0.6"/>
      </g>
     </g>
    </g>
    <g id="xtick_15">
     <g id="line2d_19">
      <g>
       <use xlink:href="#m6170232241" x="381.011469" y="298.758281" style="fill: #f0e6d2; stroke: #f0e6d2; stroke-width: 0.6"/>
      </g>
     </g>
    </g>
    <g id="xtick_16">
     <g id="line2d_20">
      <g>
       <use xlink:href="#m6170232241" x="394.168701" y="298.758281" style="fill: #f0e6d2; stroke: #f0e6d2; stroke-width: 0.6"/>
      </g>
     </g>
    </g>
    <g id="xtick_17">
     <g id="line2d_21">
      <g>
       <use xlink:href="#m6170232241" x="404.918943" y="298.758281" style="fill: #f0e6d2; stroke: #f0e6d2; stroke-width: 0.6"/>
      </g>
     </g>
    </g>
    <g id="xtick_18">
     <g id="line2d_22">
      <g>
       <use xlink:href="#m6170232241" x="414.008143" y="298.758281" style="fill: #f0e6d2; stroke: #f0e6d2; stroke-width: 0.6"/>
      </g>
     </g>
    </g>
    <g id="xtick_19">
     <g id="line2d_23">
      <g>
       <use xlink:href="#m6170232241" x="421.881566" y="298.758281" style="fill: #f0e6d2; stroke: #f0e6d2; stroke-width: 0.6"/>
      </g>
     </g>
    </g>
    <g id="xtick_20">
     <g id="line2d_24">
      <g>
       <use xlink:href="#m6170232241" x="428.826417" y="298.758281" style="fill: #f0e6d2; stroke: #f0e6d2; stroke-width: 0.6"/>
      </g>
     </g>
    </g>
    <g id="xtick_21">
     <g id="line2d_25">
      <g>
       <use xlink:href="#m6170232241" x="475.908896" y="298.758281" style="fill: #f0e6d2; stroke: #f0e6d2; stroke-width: 0.6"/>
      </g>
     </g>
    </g>
    <g id="xtick_22">
     <g id="line2d_26">
      <g>
       <use xlink:href="#m6170232241" x="499.81637" y="298.758281" style="fill: #f0e6d2; stroke: #f0e6d2; stroke-width: 0.6"/>
      </g>
     </g>
    </g>
    <g id="xtick_23">
     <g id="line2d_27">
      <g>
       <use xlink:href="#m6170232241" x="516.778993" y="298.758281" style="fill: #f0e6d2; stroke: #f0e6d2; stroke-width: 0.6"/>
      </g>
     </g>
    </g>
    <g id="xtick_24">
     <g id="line2d_28">
      <g>
       <use xlink:href="#m6170232241" x="529.936226" y="298.758281" style="fill: #f0e6d2; stroke: #f0e6d2; stroke-width: 0.6"/>
      </g>
     </g>
    </g>
    <g id="xtick_25">
     <g id="line2d_29">
      <g>
       <use xlink:href="#m6170232241" x="540.686467" y="298.758281" style="fill: #f0e6d2; stroke: #f0e6d2; stroke-width: 0.6"/>
      </g>
     </g>
    </g>
    <g id="xtick_26">
     <g id="line2d_30">
      <g>
       <use xlink:href="#m6170232241" x="549.775667" y="298.758281" style="fill: #f0e6d2; stroke: #f0e6d2; stroke-width: 0.6"/>
      </g>
     </g>
    </g>
    <g id="xtick_27">
     <g id="line2d_31">
      <g>
       <use xlink:href="#m6170232241" x="557.64909" y="298.758281" style="fill: #f0e6d2; stroke: #f0e6d2; stroke-width: 0.6"/>
      </g>
     </g>
    </g>
    <g id="xtick_28">
     <g id="line2d_32">
      <g>
       <use xlink:href="#m6170232241" x="564.593942" y="298.758281" style="fill: #f0e6d2; stroke: #f0e6d2; stroke-width: 0.6"/>
      </g>
     </g>
    </g>
    <g id="xtick_29">
     <g id="line2d_33">
      <g>
       <use xlink:href="#m6170232241" x="611.67642" y="298.758281" style="fill: #f0e6d2; stroke: #f0e6d2; stroke-width: 0.6"/>
      </g>
     </g>
    </g>
    <g id="xtick_30">
     <g id="line2d_34">
      <g>
       <use xlink:href="#m6170232241" x="635.583894" y="298.758281" style="fill: #f0e6d2; stroke: #f0e6d2; stroke-width: 0.6"/>
      </g>
     </g>
    </g>
    <g id="xtick_31">
     <g id="line2d_35">
      <g>
       <use xlink:href="#m6170232241" x="652.546517" y="298.758281" style="fill: #f0e6d2; stroke: #f0e6d2; stroke-width: 0.6"/>
      </g>
     </g>
    </g>
    <g id="xtick_32">
     <g id="line2d_36">
      <g>
       <use xlink:href="#m6170232241" x="665.70375" y="298.758281" style="fill: #f0e6d2; stroke: #f0e6d2; stroke-width: 0.6"/>
      </g>
     </g>
    </g>
    <g id="text_5">
     <!-- END-TO-END TRANSIT TIME  (minutes, log scale) -->
     <g style="fill: #f0e6d2" transform="translate(292.692422 324.429688) scale(0.09 -0.09)">
      <defs>
       <path id="DejaVuSansMono-45" d="M 616 4666 
L 3384 4666 
L 3384 4134 
L 1247 4134 
L 1247 2753 
L 3291 2753 
L 3291 2222 
L 1247 2222 
L 1247 531 
L 3444 531 
L 3444 0 
L 616 0 
L 616 4666 
z
" transform="scale(0.015625)"/>
       <path id="DejaVuSansMono-4e" d="M 434 4666 
L 1234 4666 
L 2809 825 
L 2809 4666 
L 3419 4666 
L 3419 0 
L 2619 0 
L 1044 3841 
L 1044 0 
L 434 0 
L 434 4666 
z
" transform="scale(0.015625)"/>
       <path id="DejaVuSansMono-44" d="M 1363 519 
Q 2159 519 2475 911 
Q 2791 1303 2791 2328 
Q 2791 3363 2477 3755 
Q 2163 4147 1363 4147 
L 1063 4147 
L 1063 519 
L 1363 519 
z
M 1375 4666 
Q 2444 4666 2950 4097 
Q 3456 3528 3456 2328 
Q 3456 1134 2950 567 
Q 2444 0 1375 0 
L 428 0 
L 428 4666 
L 1375 4666 
z
" transform="scale(0.015625)"/>
       <path id="DejaVuSansMono-2d" d="M 1113 2009 
L 2741 2009 
L 2741 1497 
L 1113 1497 
L 1113 2009 
z
" transform="scale(0.015625)"/>
       <path id="DejaVuSansMono-54" d="M 147 4666 
L 3706 4666 
L 3706 4134 
L 2247 4134 
L 2247 0 
L 1613 0 
L 1613 4134 
L 147 4134 
L 147 4666 
z
" transform="scale(0.015625)"/>
       <path id="DejaVuSansMono-4f" d="M 2828 2328 
Q 2828 3356 2617 3797 
Q 2406 4238 1925 4238 
Q 1447 4238 1236 3797 
Q 1025 3356 1025 2328 
Q 1025 1303 1236 862 
Q 1447 422 1925 422 
Q 2406 422 2617 861 
Q 2828 1300 2828 2328 
z
M 3488 2328 
Q 3488 1109 3102 509 
Q 2716 -91 1925 -91 
Q 1134 -91 750 506 
Q 366 1103 366 2328 
Q 366 3550 752 4150 
Q 1138 4750 1925 4750 
Q 2716 4750 3102 4150 
Q 3488 3550 3488 2328 
z
" transform="scale(0.015625)"/>
       <path id="DejaVuSansMono-20" transform="scale(0.015625)"/>
       <path id="DejaVuSansMono-52" d="M 2375 2203 
Q 2619 2141 2791 1967 
Q 2963 1794 3219 1275 
L 3853 0 
L 3175 0 
L 2619 1178 
Q 2378 1681 2186 1826 
Q 1994 1972 1684 1972 
L 1081 1972 
L 1081 0 
L 447 0 
L 447 4666 
L 1747 4666 
Q 2516 4666 2925 4319 
Q 3334 3972 3334 3316 
Q 3334 2853 3082 2561 
Q 2831 2269 2375 2203 
z
M 1081 4147 
L 1081 2491 
L 1772 2491 
Q 2225 2491 2447 2694 
Q 2669 2897 2669 3316 
Q 2669 3719 2433 3933 
Q 2197 4147 1747 4147 
L 1081 4147 
z
" transform="scale(0.015625)"/>
       <path id="DejaVuSansMono-41" d="M 1925 4109 
L 1259 1722 
L 2591 1722 
L 1925 4109 
z
M 1544 4666 
L 2309 4666 
L 3738 0 
L 3084 0 
L 2741 1216 
L 1106 1216 
L 769 0 
L 116 0 
L 1544 4666 
z
" transform="scale(0.015625)"/>
       <path id="DejaVuSansMono-53" d="M 3163 4506 
L 3163 3866 
Q 2875 4050 2586 4144 
Q 2297 4238 2003 4238 
Q 1556 4238 1297 4030 
Q 1038 3822 1038 3469 
Q 1038 3159 1208 2996 
Q 1378 2834 1844 2725 
L 2175 2650 
Q 2831 2497 3131 2169 
Q 3431 1841 3431 1275 
Q 3431 609 3018 259 
Q 2606 -91 1819 -91 
Q 1491 -91 1159 -20 
Q 828 50 494 191 
L 494 863 
Q 853 634 1173 528 
Q 1494 422 1819 422 
Q 2297 422 2562 636 
Q 2828 850 2828 1234 
Q 2828 1584 2645 1768 
Q 2463 1953 2009 2053 
L 1672 2131 
Q 1022 2278 728 2575 
Q 434 2872 434 3372 
Q 434 3997 854 4373 
Q 1275 4750 1972 4750 
Q 2241 4750 2537 4689 
Q 2834 4628 3163 4506 
z
" transform="scale(0.015625)"/>
       <path id="DejaVuSansMono-49" d="M 628 4666 
L 3219 4666 
L 3219 4134 
L 2241 4134 
L 2241 531 
L 3219 531 
L 3219 0 
L 628 0 
L 628 531 
L 1606 531 
L 1606 4134 
L 628 4134 
L 628 4666 
z
" transform="scale(0.015625)"/>
       <path id="DejaVuSansMono-4d" d="M 269 4666 
L 1113 4666 
L 1919 2291 
L 2731 4666 
L 3578 4666 
L 3578 0 
L 2994 0 
L 2994 4122 
L 2163 1663 
L 1684 1663 
L 850 4122 
L 850 0 
L 269 0 
L 269 4666 
z
" transform="scale(0.015625)"/>
       <path id="DejaVuSansMono-28" d="M 2766 4856 
Q 2350 4144 2145 3436 
Q 1941 2728 1941 2009 
Q 1941 1294 2145 584 
Q 2350 -125 2766 -844 
L 2266 -844 
Q 1794 -100 1562 604 
Q 1331 1309 1331 2009 
Q 1331 2706 1562 3412 
Q 1794 4119 2266 4856 
L 2766 4856 
z
" transform="scale(0.015625)"/>
       <path id="DejaVuSansMono-6d" d="M 2113 3144 
Q 2219 3369 2383 3476 
Q 2547 3584 2778 3584 
Q 3200 3584 3373 3257 
Q 3547 2931 3547 2028 
L 3547 0 
L 3022 0 
L 3022 2003 
Q 3022 2744 2939 2923 
Q 2856 3103 2638 3103 
Q 2388 3103 2295 2911 
Q 2203 2719 2203 2003 
L 2203 0 
L 1678 0 
L 1678 2003 
Q 1678 2753 1589 2928 
Q 1500 3103 1269 3103 
Q 1041 3103 952 2911 
Q 863 2719 863 2003 
L 863 0 
L 341 0 
L 341 3500 
L 863 3500 
L 863 3200 
Q 966 3388 1120 3486 
Q 1275 3584 1472 3584 
Q 1709 3584 1867 3475 
Q 2025 3366 2113 3144 
z
" transform="scale(0.015625)"/>
       <path id="DejaVuSansMono-69" d="M 800 3500 
L 2272 3500 
L 2272 447 
L 3413 447 
L 3413 0 
L 556 0 
L 556 447 
L 1697 447 
L 1697 3053 
L 800 3053 
L 800 3500 
z
M 1697 4863 
L 2272 4863 
L 2272 4134 
L 1697 4134 
L 1697 4863 
z
" transform="scale(0.015625)"/>
       <path id="DejaVuSansMono-6e" d="M 3284 2169 
L 3284 0 
L 2706 0 
L 2706 2169 
Q 2706 2641 2540 2862 
Q 2375 3084 2022 3084 
Q 1619 3084 1401 2798 
Q 1184 2513 1184 1978 
L 1184 0 
L 609 0 
L 609 3500 
L 1184 3500 
L 1184 2975 
Q 1338 3275 1600 3429 
Q 1863 3584 2222 3584 
Q 2756 3584 3020 3232 
Q 3284 2881 3284 2169 
z
" transform="scale(0.015625)"/>
       <path id="DejaVuSansMono-75" d="M 609 1325 
L 609 3494 
L 1184 3494 
L 1184 1325 
Q 1184 853 1351 631 
Q 1519 409 1869 409 
Q 2275 409 2490 695 
Q 2706 981 2706 1516 
L 2706 3494 
L 3284 3494 
L 3284 0 
L 2706 0 
L 2706 525 
Q 2553 222 2289 65 
Q 2025 -91 1672 -91 
Q 1134 -91 871 261 
Q 609 613 609 1325 
z
" transform="scale(0.015625)"/>
       <path id="DejaVuSansMono-74" d="M 1919 4494 
L 1919 3500 
L 3225 3500 
L 3225 3053 
L 1919 3053 
L 1919 1153 
Q 1919 766 2066 612 
Q 2213 459 2578 459 
L 3225 459 
L 3225 0 
L 2522 0 
Q 1875 0 1609 259 
Q 1344 519 1344 1153 
L 1344 3053 
L 409 3053 
L 409 3500 
L 1344 3500 
L 1344 4494 
L 1919 4494 
z
" transform="scale(0.015625)"/>
       <path id="DejaVuSansMono-65" d="M 3475 1894 
L 3475 1613 
L 984 1613 
L 984 1594 
Q 984 1022 1282 709 
Q 1581 397 2125 397 
Q 2400 397 2700 484 
Q 3000 572 3341 750 
L 3341 178 
Q 3013 44 2708 -23 
Q 2403 -91 2119 -91 
Q 1303 -91 843 398 
Q 384 888 384 1747 
Q 384 2584 834 3084 
Q 1284 3584 2034 3584 
Q 2703 3584 3089 3131 
Q 3475 2678 3475 1894 
z
M 2900 2063 
Q 2888 2569 2661 2833 
Q 2434 3097 2009 3097 
Q 1594 3097 1325 2822 
Q 1056 2547 1006 2059 
L 2900 2063 
z
" transform="scale(0.015625)"/>
       <path id="DejaVuSansMono-73" d="M 3041 3378 
L 3041 2816 
Q 2794 2959 2544 3031 
Q 2294 3103 2034 3103 
Q 1644 3103 1451 2976 
Q 1259 2850 1259 2591 
Q 1259 2356 1403 2240 
Q 1547 2125 2119 2016 
L 2350 1972 
Q 2778 1891 2998 1647 
Q 3219 1403 3219 1013 
Q 3219 494 2850 201 
Q 2481 -91 1825 -91 
Q 1566 -91 1281 -36 
Q 997 19 666 128 
L 666 722 
Q 988 556 1281 473 
Q 1575 391 1838 391 
Q 2219 391 2428 545 
Q 2638 700 2638 978 
Q 2638 1378 1872 1531 
L 1847 1538 
L 1631 1581 
Q 1134 1678 906 1908 
Q 678 2138 678 2534 
Q 678 3038 1018 3311 
Q 1359 3584 1991 3584 
Q 2272 3584 2531 3532 
Q 2791 3481 3041 3378 
z
" transform="scale(0.015625)"/>
       <path id="DejaVuSansMono-2c" d="M 1569 947 
L 2356 947 
L 2356 300 
L 1741 -897 
L 1259 -897 
L 1569 300 
L 1569 947 
z
" transform="scale(0.015625)"/>
       <path id="DejaVuSansMono-6c" d="M 1997 1269 
Q 1997 881 2139 684 
Q 2281 488 2559 488 
L 3231 488 
L 3231 0 
L 2503 0 
Q 1988 0 1705 331 
Q 1422 663 1422 1269 
L 1422 4447 
L 500 4447 
L 500 4897 
L 1997 4897 
L 1997 1269 
z
" transform="scale(0.015625)"/>
       <path id="DejaVuSansMono-6f" d="M 1925 3097 
Q 1488 3097 1263 2756 
Q 1038 2416 1038 1747 
Q 1038 1081 1263 739 
Q 1488 397 1925 397 
Q 2366 397 2591 739 
Q 2816 1081 2816 1747 
Q 2816 2416 2591 2756 
Q 2366 3097 1925 3097 
z
M 1925 3584 
Q 2653 3584 3039 3112 
Q 3425 2641 3425 1747 
Q 3425 850 3040 379 
Q 2656 -91 1925 -91 
Q 1197 -91 812 379 
Q 428 850 428 1747 
Q 428 2641 812 3112 
Q 1197 3584 1925 3584 
z
" transform="scale(0.015625)"/>
       <path id="DejaVuSansMono-67" d="M 2681 1778 
Q 2681 2425 2470 2761 
Q 2259 3097 1856 3097 
Q 1434 3097 1212 2761 
Q 991 2425 991 1778 
Q 991 1131 1214 792 
Q 1438 453 1863 453 
Q 2259 453 2470 793 
Q 2681 1134 2681 1778 
z
M 3256 225 
Q 3256 -563 2884 -969 
Q 2513 -1375 1791 -1375 
Q 1553 -1375 1293 -1331 
Q 1034 -1288 775 -1203 
L 775 -634 
Q 1081 -778 1331 -847 
Q 1581 -916 1791 -916 
Q 2256 -916 2468 -662 
Q 2681 -409 2681 141 
L 2681 166 
L 2681 556 
Q 2544 263 2306 119 
Q 2069 -25 1728 -25 
Q 1116 -25 750 465 
Q 384 956 384 1778 
Q 384 2603 750 3093 
Q 1116 3584 1728 3584 
Q 2066 3584 2300 3450 
Q 2534 3316 2681 3034 
L 2681 3488 
L 3256 3488 
L 3256 225 
z
" transform="scale(0.015625)"/>
       <path id="DejaVuSansMono-63" d="M 3316 178 
Q 3084 44 2839 -23 
Q 2594 -91 2338 -91 
Q 1525 -91 1067 396 
Q 609 884 609 1747 
Q 609 2609 1067 3096 
Q 1525 3584 2338 3584 
Q 2591 3584 2831 3518 
Q 3072 3453 3316 3316 
L 3316 2713 
Q 3088 2916 2858 3006 
Q 2628 3097 2338 3097 
Q 1797 3097 1506 2747 
Q 1216 2397 1216 1747 
Q 1216 1100 1508 748 
Q 1800 397 2338 397 
Q 2638 397 2875 489 
Q 3113 581 3316 775 
L 3316 178 
z
" transform="scale(0.015625)"/>
       <path id="DejaVuSansMono-61" d="M 2194 1759 
L 2003 1759 
Q 1500 1759 1245 1582 
Q 991 1406 991 1056 
Q 991 741 1181 566 
Q 1372 391 1709 391 
Q 2184 391 2456 720 
Q 2728 1050 2731 1631 
L 2731 1759 
L 2194 1759 
z
M 3309 1997 
L 3309 0 
L 2731 0 
L 2731 519 
Q 2547 206 2267 57 
Q 1988 -91 1588 -91 
Q 1053 -91 734 211 
Q 416 513 416 1019 
Q 416 1603 808 1906 
Q 1200 2209 1959 2209 
L 2731 2209 
L 2731 2300 
Q 2728 2719 2518 2908 
Q 2309 3097 1850 3097 
Q 1556 3097 1256 3012 
Q 956 2928 672 2766 
L 672 3341 
Q 991 3463 1283 3523 
Q 1575 3584 1850 3584 
Q 2284 3584 2592 3456 
Q 2900 3328 3091 3072 
Q 3209 2916 3259 2686 
Q 3309 2456 3309 1997 
z
" transform="scale(0.015625)"/>
       <path id="DejaVuSansMono-29" d="M 1088 4856 
L 1588 4856 
Q 2059 4119 2290 3412 
Q 2522 2706 2522 2009 
Q 2522 1306 2290 600 
Q 2059 -106 1588 -844 
L 1088 -844 
Q 1503 -119 1708 590 
Q 1913 1300 1913 2009 
Q 1913 2722 1708 3431 
Q 1503 4141 1088 4856 
z
" transform="scale(0.015625)"/>
      </defs>
      <use xlink:href="#DejaVuSansMono-45"/>
      <use xlink:href="#DejaVuSansMono-4e" transform="translate(60.205078 0)"/>
      <use xlink:href="#DejaVuSansMono-44" transform="translate(120.410156 0)"/>
      <use xlink:href="#DejaVuSansMono-2d" transform="translate(180.615234 0)"/>
      <use xlink:href="#DejaVuSansMono-54" transform="translate(240.820312 0)"/>
      <use xlink:href="#DejaVuSansMono-4f" transform="translate(301.025391 0)"/>
      <use xlink:href="#DejaVuSansMono-2d" transform="translate(361.230469 0)"/>
      <use xlink:href="#DejaVuSansMono-45" transform="translate(421.435547 0)"/>
      <use xlink:href="#DejaVuSansMono-4e" transform="translate(481.640625 0)"/>
      <use xlink:href="#DejaVuSansMono-44" transform="translate(541.845703 0)"/>
      <use xlink:href="#DejaVuSansMono-20" transform="translate(602.050781 0)"/>
      <use xlink:href="#DejaVuSansMono-54" transform="translate(662.255859 0)"/>
      <use xlink:href="#DejaVuSansMono-52" transform="translate(722.460938 0)"/>
      <use xlink:href="#DejaVuSansMono-41" transform="translate(782.666016 0)"/>
      <use xlink:href="#DejaVuSansMono-4e" transform="translate(842.871094 0)"/>
      <use xlink:href="#DejaVuSansMono-53" transform="translate(903.076172 0)"/>
      <use xlink:href="#DejaVuSansMono-49" transform="translate(963.28125 0)"/>
      <use xlink:href="#DejaVuSansMono-54" transform="translate(1023.486328 0)"/>
      <use xlink:href="#DejaVuSansMono-20" transform="translate(1083.691406 0)"/>
      <use xlink:href="#DejaVuSansMono-54" transform="translate(1143.896484 0)"/>
      <use xlink:href="#DejaVuSansMono-49" transform="translate(1204.101562 0)"/>
      <use xlink:href="#DejaVuSansMono-4d" transform="translate(1264.306641 0)"/>
      <use xlink:href="#DejaVuSansMono-45" transform="translate(1324.511719 0)"/>
      <use xlink:href="#DejaVuSansMono-20" transform="translate(1384.716797 0)"/>
      <use xlink:href="#DejaVuSansMono-20" transform="translate(1444.921875 0)"/>
      <use xlink:href="#DejaVuSansMono-28" transform="translate(1505.126953 0)"/>
      <use xlink:href="#DejaVuSansMono-6d" transform="translate(1565.332031 0)"/>
      <use xlink:href="#DejaVuSansMono-69" transform="translate(1625.537109 0)"/>
      <use xlink:href="#DejaVuSansMono-6e" transform="translate(1685.742188 0)"/>
      <use xlink:href="#DejaVuSansMono-75" transform="translate(1745.947266 0)"/>
      <use xlink:href="#DejaVuSansMono-74" transform="translate(1806.152344 0)"/>
      <use xlink:href="#DejaVuSansMono-65" transform="translate(1866.357422 0)"/>
      <use xlink:href="#DejaVuSansMono-73" transform="translate(1926.5625 0)"/>
      <use xlink:href="#DejaVuSansMono-2c" transform="translate(1986.767578 0)"/>
      <use xlink:href="#DejaVuSansMono-20" transform="translate(2046.972656 0)"/>
      <use xlink:href="#DejaVuSansMono-6c" transform="translate(2107.177734 0)"/>
      <use xlink:href="#DejaVuSansMono-6f" transform="translate(2167.382812 0)"/>
      <use xlink:href="#DejaVuSansMono-67" transform="translate(2227.587891 0)"/>
      <use xlink:href="#DejaVuSansMono-20" transform="translate(2287.792969 0)"/>
      <use xlink:href="#DejaVuSansMono-73" transform="translate(2347.998047 0)"/>
      <use xlink:href="#DejaVuSansMono-63" transform="translate(2408.203125 0)"/>
      <use xlink:href="#DejaVuSansMono-61" transform="translate(2468.408203 0)"/>
      <use xlink:href="#DejaVuSansMono-6c" transform="translate(2528.613281 0)"/>
      <use xlink:href="#DejaVuSansMono-65" transform="translate(2588.818359 0)"/>
      <use xlink:href="#DejaVuSansMono-29" transform="translate(2649.023438 0)"/>
     </g>
    </g>
   </g>
   <g id="matplotlib.axis_2">
    <g id="ytick_1">
     <g id="line2d_37">
      <path d="M 163.50375 259.631965 
L 665.70375 259.631965 
" clip-path="url(#p78c288cac4)" style="fill: none; stroke-dasharray: 0.8,1.32; stroke-dashoffset: 0; stroke: #6d7380; stroke-opacity: 0.25; stroke-width: 0.8"/>
     </g>
     <g id="line2d_38">
      <defs>
       <path id="m7c056e31a3" d="M 0 0 
L -3.5 0 
" style="stroke: #f0e6d2; stroke-width: 0.8"/>
      </defs>
      <g>
       <use xlink:href="#m7c056e31a3" x="163.50375" y="259.631965" style="fill: #f0e6d2; stroke: #f0e6d2; stroke-width: 0.8"/>
      </g>
     </g>
     <g id="text_6">
      <!-- Walk (5 km/h) -->
      <g style="fill: #f0e6d2" transform="translate(93.8925 262.69259) scale(0.08 -0.08)">
       <defs>
        <path id="DejaVuSansMono-57" d="M 0 4666 
L 616 4666 
L 1063 878 
L 1594 3384 
L 2253 3384 
L 2791 872 
L 3238 4666 
L 3853 4666 
L 3156 0 
L 2559 0 
L 1925 2772 
L 1294 0 
L 697 0 
L 0 4666 
z
" transform="scale(0.015625)"/>
        <path id="DejaVuSansMono-6b" d="M 738 4863 
L 1331 4863 
L 1331 2047 
L 2841 3500 
L 3541 3500 
L 2163 2181 
L 3756 0 
L 3053 0 
L 1759 1806 
L 1331 1403 
L 1331 0 
L 738 0 
L 738 4863 
z
" transform="scale(0.015625)"/>
        <path id="DejaVuSansMono-35" d="M 647 4666 
L 3009 4666 
L 3009 4134 
L 1222 4134 
L 1222 2988 
Q 1356 3038 1492 3061 
Q 1628 3084 1766 3084 
Q 2491 3084 2916 2656 
Q 3341 2228 3341 1497 
Q 3341 759 2895 334 
Q 2450 -91 1678 -91 
Q 1306 -91 998 -41 
Q 691 9 447 109 
L 447 750 
Q 734 594 1025 517 
Q 1316 441 1619 441 
Q 2141 441 2423 716 
Q 2706 991 2706 1497 
Q 2706 1997 2414 2275 
Q 2122 2553 1600 2553 
Q 1347 2553 1106 2495 
Q 866 2438 647 2322 
L 647 4666 
z
" transform="scale(0.015625)"/>
        <path id="DejaVuSansMono-2f" d="M 2778 4666 
L 3372 4666 
L 916 -594 
L 319 -594 
L 2778 4666 
z
" transform="scale(0.015625)"/>
        <path id="DejaVuSansMono-68" d="M 3284 2169 
L 3284 0 
L 2706 0 
L 2706 2169 
Q 2706 2641 2540 2862 
Q 2375 3084 2022 3084 
Q 1619 3084 1401 2798 
Q 1184 2513 1184 1978 
L 1184 0 
L 609 0 
L 609 4863 
L 1184 4863 
L 1184 2975 
Q 1338 3275 1600 3429 
Q 1863 3584 2222 3584 
Q 2756 3584 3020 3232 
Q 3284 2881 3284 2169 
z
" transform="scale(0.015625)"/>
       </defs>
       <use xlink:href="#DejaVuSansMono-57"/>
       <use xlink:href="#DejaVuSansMono-61" transform="translate(60.205078 0)"/>
       <use xlink:href="#DejaVuSansMono-6c" transform="translate(120.410156 0)"/>
       <use xlink:href="#DejaVuSansMono-6b" transform="translate(180.615234 0)"/>
       <use xlink:href="#DejaVuSansMono-20" transform="translate(240.820312 0)"/>
       <use xlink:href="#DejaVuSansMono-28" transform="translate(301.025391 0)"/>
       <use xlink:href="#DejaVuSansMono-35" transform="translate(361.230469 0)"/>
       <use xlink:href="#DejaVuSansMono-20" transform="translate(421.435547 0)"/>
       <use xlink:href="#DejaVuSansMono-6b" transform="translate(481.640625 0)"/>
       <use xlink:href="#DejaVuSansMono-6d" transform="translate(541.845703 0)"/>
       <use xlink:href="#DejaVuSansMono-2f" transform="translate(602.050781 0)"/>
       <use xlink:href="#DejaVuSansMono-68" transform="translate(662.255859 0)"/>
       <use xlink:href="#DejaVuSansMono-29" transform="translate(722.460938 0)"/>
      </g>
     </g>
    </g>
    <g id="ytick_2">
     <g id="line2d_39">
      <path d="M 163.50375 193.316176 
L 665.70375 193.316176 
" clip-path="url(#p78c288cac4)" style="fill: none; stroke-dasharray: 0.8,1.32; stroke-dashoffset: 0; stroke: #6d7380; stroke-opacity: 0.25; stroke-width: 0.8"/>
     </g>
     <g id="line2d_40">
      <g>
       <use xlink:href="#m7c056e31a3" x="163.50375" y="193.316176" style="fill: #f0e6d2; stroke: #f0e6d2; stroke-width: 0.8"/>
      </g>
     </g>
     <g id="text_7">
      <!-- Turbolift (50 km/h) -->
      <g style="fill: #f0e6d2" transform="translate(64.995 196.376801) scale(0.08 -0.08)">
       <defs>
        <path id="DejaVuSansMono-72" d="M 3609 2778 
Q 3425 2922 3234 2987 
Q 3044 3053 2816 3053 
Q 2278 3053 1993 2715 
Q 1709 2378 1709 1741 
L 1709 0 
L 1131 0 
L 1131 3500 
L 1709 3500 
L 1709 2816 
Q 1853 3188 2151 3386 
Q 2450 3584 2859 3584 
Q 3072 3584 3256 3531 
Q 3441 3478 3609 3366 
L 3609 2778 
z
" transform="scale(0.015625)"/>
        <path id="DejaVuSansMono-62" d="M 2869 1747 
Q 2869 2416 2656 2756 
Q 2444 3097 2028 3097 
Q 1609 3097 1393 2755 
Q 1178 2413 1178 1747 
Q 1178 1084 1393 740 
Q 1609 397 2028 397 
Q 2444 397 2656 737 
Q 2869 1078 2869 1747 
z
M 1178 3053 
Q 1316 3309 1558 3446 
Q 1800 3584 2119 3584 
Q 2750 3584 3112 3098 
Q 3475 2613 3475 1759 
Q 3475 894 3111 401 
Q 2747 -91 2113 -91 
Q 1800 -91 1561 45 
Q 1322 181 1178 441 
L 1178 0 
L 603 0 
L 603 4863 
L 1178 4863 
L 1178 3053 
z
" transform="scale(0.015625)"/>
        <path id="DejaVuSansMono-66" d="M 3322 4863 
L 3322 4384 
L 2669 4384 
Q 2359 4384 2239 4257 
Q 2119 4131 2119 3809 
L 2119 3500 
L 3322 3500 
L 3322 3053 
L 2119 3053 
L 2119 0 
L 1544 0 
L 1544 3053 
L 609 3053 
L 609 3500 
L 1544 3500 
L 1544 3744 
Q 1544 4319 1808 4591 
Q 2072 4863 2631 4863 
L 3322 4863 
z
" transform="scale(0.015625)"/>
       </defs>
       <use xlink:href="#DejaVuSansMono-54"/>
       <use xlink:href="#DejaVuSansMono-75" transform="translate(60.205078 0)"/>
       <use xlink:href="#DejaVuSansMono-72" transform="translate(120.410156 0)"/>
       <use xlink:href="#DejaVuSansMono-62" transform="translate(180.615234 0)"/>
       <use xlink:href="#DejaVuSansMono-6f" transform="translate(240.820312 0)"/>
       <use xlink:href="#DejaVuSansMono-6c" transform="translate(301.025391 0)"/>
       <use xlink:href="#DejaVuSansMono-69" transform="translate(361.230469 0)"/>
       <use xlink:href="#DejaVuSansMono-66" transform="translate(421.435547 0)"/>
       <use xlink:href="#DejaVuSansMono-74" transform="translate(481.640625 0)"/>
       <use xlink:href="#DejaVuSansMono-20" transform="translate(541.845703 0)"/>
       <use xlink:href="#DejaVuSansMono-28" transform="translate(602.050781 0)"/>
       <use xlink:href="#DejaVuSansMono-35" transform="translate(662.255859 0)"/>
       <use xlink:href="#DejaVuSansMono-30" transform="translate(722.460938 0)"/>
       <use xlink:href="#DejaVuSansMono-20" transform="translate(782.666016 0)"/>
       <use xlink:href="#DejaVuSansMono-6b" transform="translate(842.871094 0)"/>
       <use xlink:href="#DejaVuSansMono-6d" transform="translate(903.076172 0)"/>
       <use xlink:href="#DejaVuSansMono-2f" transform="translate(963.28125 0)"/>
       <use xlink:href="#DejaVuSansMono-68" transform="translate(1023.486328 0)"/>
       <use xlink:href="#DejaVuSansMono-29" transform="translate(1083.691406 0)"/>
      </g>
     </g>
    </g>
    <g id="ytick_3">
     <g id="line2d_41">
      <path d="M 163.50375 127.000387 
L 665.70375 127.000387 
" clip-path="url(#p78c288cac4)" style="fill: none; stroke-dasharray: 0.8,1.32; stroke-dashoffset: 0; stroke: #6d7380; stroke-opacity: 0.25; stroke-width: 0.8"/>
     </g>
     <g id="line2d_42">
      <g>
       <use xlink:href="#m7c056e31a3" x="163.50375" y="127.000387" style="fill: #f0e6d2; stroke: #f0e6d2; stroke-width: 0.8"/>
      </g>
     </g>
     <g id="text_8">
      <!-- Officer monorail (150 km/h) -->
      <g style="fill: #f0e6d2" transform="translate(26.465 130.061012) scale(0.08 -0.08)">
       <use xlink:href="#DejaVuSansMono-4f"/>
       <use xlink:href="#DejaVuSansMono-66" transform="translate(60.205078 0)"/>
       <use xlink:href="#DejaVuSansMono-66" transform="translate(120.410156 0)"/>
       <use xlink:href="#DejaVuSansMono-69" transform="translate(180.615234 0)"/>
       <use xlink:href="#DejaVuSansMono-63" transform="translate(240.820312 0)"/>
       <use xlink:href="#DejaVuSansMono-65" transform="translate(301.025391 0)"/>
       <use xlink:href="#DejaVuSansMono-72" transform="translate(361.230469 0)"/>
       <use xlink:href="#DejaVuSansMono-20" transform="translate(421.435547 0)"/>
       <use xlink:href="#DejaVuSansMono-6d" transform="translate(481.640625 0)"/>
       <use xlink:href="#DejaVuSansMono-6f" transform="translate(541.845703 0)"/>
       <use xlink:href="#DejaVuSansMono-6e" transform="translate(602.050781 0)"/>
       <use xlink:href="#DejaVuSansMono-6f" transform="translate(662.255859 0)"/>
       <use xlink:href="#DejaVuSansMono-72" transform="translate(722.460938 0)"/>
       <use xlink:href="#DejaVuSansMono-61" transform="translate(782.666016 0)"/>
       <use xlink:href="#DejaVuSansMono-69" transform="translate(842.871094 0)"/>
       <use xlink:href="#DejaVuSansMono-6c" transform="translate(903.076172 0)"/>
       <use xlink:href="#DejaVuSansMono-20" transform="translate(963.28125 0)"/>
       <use xlink:href="#DejaVuSansMono-28" transform="translate(1023.486328 0)"/>
       <use xlink:href="#DejaVuSansMono-31" transform="translate(1083.691406 0)"/>
       <use xlink:href="#DejaVuSansMono-35" transform="translate(1143.896484 0)"/>
       <use xlink:href="#DejaVuSansMono-30" transform="translate(1204.101562 0)"/>
       <use xlink:href="#DejaVuSansMono-20" transform="translate(1264.306641 0)"/>
       <use xlink:href="#DejaVuSansMono-6b" transform="translate(1324.511719 0)"/>
       <use xlink:href="#DejaVuSansMono-6d" transform="translate(1384.716797 0)"/>
       <use xlink:href="#DejaVuSansMono-2f" transform="translate(1444.921875 0)"/>
       <use xlink:href="#DejaVuSansMono-68" transform="translate(1505.126953 0)"/>
       <use xlink:href="#DejaVuSansMono-29" transform="translate(1565.332031 0)"/>
      </g>
     </g>
    </g>
    <g id="ytick_4">
     <g id="line2d_43">
      <path d="M 163.50375 60.684597 
L 665.70375 60.684597 
" clip-path="url(#p78c288cac4)" style="fill: none; stroke-dasharray: 0.8,1.32; stroke-dashoffset: 0; stroke: #6d7380; stroke-opacity: 0.25; stroke-width: 0.8"/>
     </g>
     <g id="line2d_44">
      <g>
       <use xlink:href="#m7c056e31a3" x="163.50375" y="60.684597" style="fill: #f0e6d2; stroke: #f0e6d2; stroke-width: 0.8"/>
      </g>
     </g>
     <g id="text_9">
      <!-- Hyperloop (Mach 5 ≈ 6,120 km/h) -->
      <g style="fill: #f0e6d2" transform="translate(7.2 63.745222) scale(0.08 -0.08)">
       <defs>
        <path id="DejaVuSansMono-48" d="M 428 4666 
L 1063 4666 
L 1063 2753 
L 2791 2753 
L 2791 4666 
L 3425 4666 
L 3425 0 
L 2791 0 
L 2791 2222 
L 1063 2222 
L 1063 0 
L 428 0 
L 428 4666 
z
" transform="scale(0.015625)"/>
        <path id="DejaVuSansMono-79" d="M 2681 1125 
Q 2538 759 2316 163 
Q 2006 -663 1900 -844 
Q 1756 -1088 1540 -1209 
Q 1325 -1331 1038 -1331 
L 575 -1331 
L 575 -850 
L 916 -850 
Q 1169 -850 1312 -703 
Q 1456 -556 1678 56 
L 325 3500 
L 934 3500 
L 1972 763 
L 2994 3500 
L 3603 3500 
L 2681 1125 
z
" transform="scale(0.015625)"/>
        <path id="DejaVuSansMono-70" d="M 1172 441 
L 1172 -1331 
L 594 -1331 
L 594 3500 
L 1172 3500 
L 1172 3053 
Q 1316 3313 1555 3448 
Q 1794 3584 2106 3584 
Q 2741 3584 3102 3093 
Q 3463 2603 3463 1734 
Q 3463 881 3100 395 
Q 2738 -91 2106 -91 
Q 1788 -91 1548 45 
Q 1309 181 1172 441 
z
M 2859 1747 
Q 2859 2416 2648 2756 
Q 2438 3097 2022 3097 
Q 1603 3097 1387 2755 
Q 1172 2413 1172 1747 
Q 1172 1084 1387 740 
Q 1603 397 2022 397 
Q 2438 397 2648 737 
Q 2859 1078 2859 1747 
z
" transform="scale(0.015625)"/>
        <path id="DejaVuSansMono-2248" d="M 3578 3009 
L 3578 2463 
Q 3344 2278 3120 2192 
Q 2897 2106 2650 2106 
Q 2369 2106 2016 2266 
Q 1947 2297 1913 2309 
Q 1672 2416 1511 2453 
Q 1350 2491 1191 2491 
Q 944 2491 723 2398 
Q 503 2306 275 2106 
L 275 2650 
Q 519 2838 747 2923 
Q 975 3009 1234 3009 
Q 1400 3009 1556 2975 
Q 1713 2941 1947 2841 
Q 1978 2828 2047 2794 
Q 2409 2625 2700 2625 
Q 2919 2625 3133 2719 
Q 3347 2813 3578 3009 
z
M 3578 1863 
L 3578 1313 
Q 3344 1128 3120 1040 
Q 2897 953 2650 953 
Q 2369 953 2016 1113 
Q 1947 1144 1913 1159 
Q 1653 1272 1498 1308 
Q 1344 1344 1191 1344 
Q 947 1344 726 1250 
Q 506 1156 275 953 
L 275 1497 
Q 522 1691 750 1777 
Q 978 1863 1234 1863 
Q 1534 1863 1941 1691 
L 1944 1691 
Q 1978 1675 2047 1644 
Q 2409 1472 2700 1472 
Q 2913 1472 3128 1567 
Q 3344 1663 3578 1863 
z
" transform="scale(0.015625)"/>
        <path id="DejaVuSansMono-36" d="M 3097 4563 
L 3097 3981 
Q 2900 4097 2678 4158 
Q 2456 4219 2216 4219 
Q 1616 4219 1306 3767 
Q 997 3316 997 2438 
Q 1147 2750 1412 2917 
Q 1678 3084 2022 3084 
Q 2697 3084 3067 2670 
Q 3438 2256 3438 1497 
Q 3438 741 3056 325 
Q 2675 -91 1984 -91 
Q 1172 -91 794 492 
Q 416 1075 416 2328 
Q 416 3509 870 4129 
Q 1325 4750 2188 4750 
Q 2419 4750 2650 4701 
Q 2881 4653 3097 4563 
z
M 1972 2591 
Q 1569 2591 1337 2300 
Q 1106 2009 1106 1497 
Q 1106 984 1337 693 
Q 1569 403 1972 403 
Q 2391 403 2603 679 
Q 2816 956 2816 1497 
Q 2816 2041 2603 2316 
Q 2391 2591 1972 2591 
z
" transform="scale(0.015625)"/>
       </defs>
       <use xlink:href="#DejaVuSansMono-48"/>
       <use xlink:href="#DejaVuSansMono-79" transform="translate(60.205078 0)"/>
       <use xlink:href="#DejaVuSansMono-70" transform="translate(120.410156 0)"/>
       <use xlink:href="#DejaVuSansMono-65" transform="translate(180.615234 0)"/>
       <use xlink:href="#DejaVuSansMono-72" transform="translate(240.820312 0)"/>
       <use xlink:href="#DejaVuSansMono-6c" transform="translate(301.025391 0)"/>
       <use xlink:href="#DejaVuSansMono-6f" transform="translate(361.230469 0)"/>
       <use xlink:href="#DejaVuSansMono-6f" transform="translate(421.435547 0)"/>
       <use xlink:href="#DejaVuSansMono-70" transform="translate(481.640625 0)"/>
       <use xlink:href="#DejaVuSansMono-20" transform="translate(541.845703 0)"/>
       <use xlink:href="#DejaVuSansMono-28" transform="translate(602.050781 0)"/>
       <use xlink:href="#DejaVuSansMono-4d" transform="translate(662.255859 0)"/>
       <use xlink:href="#DejaVuSansMono-61" transform="translate(722.460938 0)"/>
       <use xlink:href="#DejaVuSansMono-63" transform="translate(782.666016 0)"/>
       <use xlink:href="#DejaVuSansMono-68" transform="translate(842.871094 0)"/>
       <use xlink:href="#DejaVuSansMono-20" transform="translate(903.076172 0)"/>
       <use xlink:href="#DejaVuSansMono-35" transform="translate(963.28125 0)"/>
       <use xlink:href="#DejaVuSansMono-20" transform="translate(1023.486328 0)"/>
       <use xlink:href="#DejaVuSansMono-2248" transform="translate(1083.691406 0)"/>
       <use xlink:href="#DejaVuSansMono-20" transform="translate(1143.896484 0)"/>
       <use xlink:href="#DejaVuSansMono-36" transform="translate(1204.101562 0)"/>
       <use xlink:href="#DejaVuSansMono-2c" transform="translate(1264.306641 0)"/>
       <use xlink:href="#DejaVuSansMono-31" transform="translate(1324.511719 0)"/>
       <use xlink:href="#DejaVuSansMono-32" transform="translate(1384.716797 0)"/>
       <use xlink:href="#DejaVuSansMono-30" transform="translate(1444.921875 0)"/>
       <use xlink:href="#DejaVuSansMono-20" transform="translate(1505.126953 0)"/>
       <use xlink:href="#DejaVuSansMono-6b" transform="translate(1565.332031 0)"/>
       <use xlink:href="#DejaVuSansMono-6d" transform="translate(1625.537109 0)"/>
       <use xlink:href="#DejaVuSansMono-2f" transform="translate(1685.742188 0)"/>
       <use xlink:href="#DejaVuSansMono-68" transform="translate(1745.947266 0)"/>
       <use xlink:href="#DejaVuSansMono-29" transform="translate(1806.152344 0)"/>
      </g>
     </g>
    </g>
   </g>
   <g id="patch_7">
    <path d="M 163.50375 298.758281 
L 163.50375 21.558281 
" style="fill: none; stroke: #f5a623; stroke-width: 0.8; stroke-linejoin: miter; stroke-linecap: square"/>
   </g>
   <g id="patch_8">
    <path d="M 665.70375 298.758281 
L 665.70375 21.558281 
" style="fill: none; stroke: #f5a623; stroke-width: 0.8; stroke-linejoin: miter; stroke-linecap: square"/>
   </g>
   <g id="patch_9">
    <path d="M 163.50375 298.758281 
L 665.70375 298.758281 
" style="fill: none; stroke: #f5a623; stroke-width: 0.8; stroke-linejoin: miter; stroke-linecap: square"/>
   </g>
   <g id="patch_10">
    <path d="M 163.50375 21.558281 
L 665.70375 21.558281 
" style="fill: none; stroke: #f5a623; stroke-width: 0.8; stroke-linejoin: miter; stroke-linecap: square"/>
   </g>
   <g id="text_10">
    <!-- 2262 min  (37.7 h) -->
    <g style="fill: #f0e6d2" transform="translate(627.175701 261.860715) scale(0.08 -0.08)">
     <defs>
      <path id="DejaVuSansMono-37" d="M 434 4666 
L 3372 4666 
L 3372 4397 
L 1703 0 
L 1044 0 
L 2669 4134 
L 434 4134 
L 434 4666 
z
" transform="scale(0.015625)"/>
      <path id="DejaVuSansMono-2e" d="M 1528 953 
L 2316 953 
L 2316 0 
L 1528 0 
L 1528 953 
z
" transform="scale(0.015625)"/>
     </defs>
     <use xlink:href="#DejaVuSansMono-32"/>
     <use xlink:href="#DejaVuSansMono-32" transform="translate(60.205078 0)"/>
     <use xlink:href="#DejaVuSansMono-36" transform="translate(120.410156 0)"/>
     <use xlink:href="#DejaVuSansMono-32" transform="translate(180.615234 0)"/>
     <use xlink:href="#DejaVuSansMono-20" transform="translate(240.820312 0)"/>
     <use xlink:href="#DejaVuSansMono-6d" transform="translate(301.025391 0)"/>
     <use xlink:href="#DejaVuSansMono-69" transform="translate(361.230469 0)"/>
     <use xlink:href="#DejaVuSansMono-6e" transform="translate(421.435547 0)"/>
     <use xlink:href="#DejaVuSansMono-20" transform="translate(481.640625 0)"/>
     <use xlink:href="#DejaVuSansMono-20" transform="translate(541.845703 0)"/>
     <use xlink:href="#DejaVuSansMono-28" transform="translate(602.050781 0)"/>
     <use xlink:href="#DejaVuSansMono-33" transform="translate(662.255859 0)"/>
     <use xlink:href="#DejaVuSansMono-37" transform="translate(722.460938 0)"/>
     <use xlink:href="#DejaVuSansMono-2e" transform="translate(782.666016 0)"/>
     <use xlink:href="#DejaVuSansMono-37" transform="translate(842.871094 0)"/>
     <use xlink:href="#DejaVuSansMono-20" transform="translate(903.076172 0)"/>
     <use xlink:href="#DejaVuSansMono-68" transform="translate(963.28125 0)"/>
     <use xlink:href="#DejaVuSansMono-29" transform="translate(1023.486328 0)"/>
    </g>
   </g>
   <g id="text_11">
    <!-- 226 min  (3.8 h) -->
    <g style="fill: #f0e6d2" transform="translate(491.251568 195.544926) scale(0.08 -0.08)">
     <defs>
      <path id="DejaVuSansMono-38" d="M 1925 2216 
Q 1503 2216 1273 1980 
Q 1044 1744 1044 1313 
Q 1044 881 1276 642 
Q 1509 403 1925 403 
Q 2350 403 2579 639 
Q 2809 875 2809 1313 
Q 2809 1741 2576 1978 
Q 2344 2216 1925 2216 
z
M 1375 2478 
Q 972 2581 745 2862 
Q 519 3144 519 3541 
Q 519 4097 897 4423 
Q 1275 4750 1925 4750 
Q 2578 4750 2956 4423 
Q 3334 4097 3334 3541 
Q 3334 3144 3107 2862 
Q 2881 2581 2478 2478 
Q 2947 2375 3195 2062 
Q 3444 1750 3444 1253 
Q 3444 622 3041 265 
Q 2638 -91 1925 -91 
Q 1213 -91 811 264 
Q 409 619 409 1247 
Q 409 1747 657 2061 
Q 906 2375 1375 2478 
z
M 1147 3481 
Q 1147 3106 1347 2909 
Q 1547 2713 1925 2713 
Q 2306 2713 2506 2909 
Q 2706 3106 2706 3481 
Q 2706 3863 2507 4063 
Q 2309 4263 1925 4263 
Q 1547 4263 1347 4061 
Q 1147 3859 1147 3481 
z
" transform="scale(0.015625)"/>
     </defs>
     <use xlink:href="#DejaVuSansMono-32"/>
     <use xlink:href="#DejaVuSansMono-32" transform="translate(60.205078 0)"/>
     <use xlink:href="#DejaVuSansMono-36" transform="translate(120.410156 0)"/>
     <use xlink:href="#DejaVuSansMono-20" transform="translate(180.615234 0)"/>
     <use xlink:href="#DejaVuSansMono-6d" transform="translate(240.820312 0)"/>
     <use xlink:href="#DejaVuSansMono-69" transform="translate(301.025391 0)"/>
     <use xlink:href="#DejaVuSansMono-6e" transform="translate(361.230469 0)"/>
     <use xlink:href="#DejaVuSansMono-20" transform="translate(421.435547 0)"/>
     <use xlink:href="#DejaVuSansMono-20" transform="translate(481.640625 0)"/>
     <use xlink:href="#DejaVuSansMono-28" transform="translate(541.845703 0)"/>
     <use xlink:href="#DejaVuSansMono-33" transform="translate(602.050781 0)"/>
     <use xlink:href="#DejaVuSansMono-2e" transform="translate(662.255859 0)"/>
     <use xlink:href="#DejaVuSansMono-38" transform="translate(722.460938 0)"/>
     <use xlink:href="#DejaVuSansMono-20" transform="translate(782.666016 0)"/>
     <use xlink:href="#DejaVuSansMono-68" transform="translate(842.871094 0)"/>
     <use xlink:href="#DejaVuSansMono-29" transform="translate(903.076172 0)"/>
    </g>
   </g>
   <g id="text_12">
    <!-- 75 min  (1.2 h) -->
    <g style="fill: #f0e6d2" transform="translate(426.316971 129.229137) scale(0.08 -0.08)">
     <use xlink:href="#DejaVuSansMono-37"/>
     <use xlink:href="#DejaVuSansMono-35" transform="translate(60.205078 0)"/>
     <use xlink:href="#DejaVuSansMono-20" transform="translate(120.410156 0)"/>
     <use xlink:href="#DejaVuSansMono-6d" transform="translate(180.615234 0)"/>
     <use xlink:href="#DejaVuSansMono-69" transform="translate(240.820312 0)"/>
     <use xlink:href="#DejaVuSansMono-6e" transform="translate(301.025391 0)"/>
     <use xlink:href="#DejaVuSansMono-20" transform="translate(361.230469 0)"/>
     <use xlink:href="#DejaVuSansMono-20" transform="translate(421.435547 0)"/>
     <use xlink:href="#DejaVuSansMono-28" transform="translate(481.640625 0)"/>
     <use xlink:href="#DejaVuSansMono-31" transform="translate(541.845703 0)"/>
     <use xlink:href="#DejaVuSansMono-2e" transform="translate(602.050781 0)"/>
     <use xlink:href="#DejaVuSansMono-32" transform="translate(662.255859 0)"/>
     <use xlink:href="#DejaVuSansMono-20" transform="translate(722.460938 0)"/>
     <use xlink:href="#DejaVuSansMono-68" transform="translate(782.666016 0)"/>
     <use xlink:href="#DejaVuSansMono-29" transform="translate(842.871094 0)"/>
    </g>
   </g>
   <g id="text_13">
    <!-- 3.07 min -->
    <g style="fill: #f0e6d2" transform="translate(237.882117 62.913347) scale(0.08 -0.08)">
     <use xlink:href="#DejaVuSansMono-33"/>
     <use xlink:href="#DejaVuSansMono-2e" transform="translate(60.205078 0)"/>
     <use xlink:href="#DejaVuSansMono-30" transform="translate(120.410156 0)"/>
     <use xlink:href="#DejaVuSansMono-37" transform="translate(180.615234 0)"/>
     <use xlink:href="#DejaVuSansMono-20" transform="translate(240.820312 0)"/>
     <use xlink:href="#DejaVuSansMono-6d" transform="translate(301.025391 0)"/>
     <use xlink:href="#DejaVuSansMono-69" transform="translate(361.230469 0)"/>
     <use xlink:href="#DejaVuSansMono-6e" transform="translate(421.435547 0)"/>
    </g>
   </g>
   <g id="text_14">
    <!-- F-6.2  INTERNAL TRANSIT — 188 km GREAT-CIRCLE ARC -->
    <g style="fill: #ffffff" transform="translate(252.356328 15.558281) scale(0.11 -0.11)">
     <defs>
      <path id="DejaVuSansMono-Bold-46" d="M 3475 3853 
L 1491 3853 
L 1491 2847 
L 3297 2847 
L 3297 2034 
L 1491 2034 
L 1491 0 
L 569 0 
L 569 4666 
L 3475 4666 
L 3475 3853 
z
" transform="scale(0.015625)"/>
      <path id="DejaVuSansMono-Bold-2d" d="M 941 2297 
L 2913 2297 
L 2913 1388 
L 941 1388 
L 941 2297 
z
" transform="scale(0.015625)"/>
      <path id="DejaVuSansMono-Bold-36" d="M 2009 2338 
Q 1709 2338 1551 2120 
Q 1394 1903 1394 1491 
Q 1394 1081 1551 864 
Q 1709 647 2009 647 
Q 2309 647 2470 864 
Q 2631 1081 2631 1491 
Q 2631 1900 2470 2119 
Q 2309 2338 2009 2338 
z
M 3219 4556 
L 3219 3719 
Q 2972 3859 2745 3929 
Q 2519 4000 2309 4000 
Q 1809 4000 1548 3664 
Q 1288 3328 1275 2672 
Q 1422 2875 1650 2976 
Q 1878 3078 2188 3078 
Q 2819 3078 3162 2679 
Q 3506 2281 3506 1550 
Q 3506 766 3120 334 
Q 2734 -97 2034 -97 
Q 1181 -97 795 475 
Q 409 1047 409 2322 
Q 409 3534 881 4139 
Q 1353 4744 2297 4744 
Q 2516 4744 2748 4697 
Q 2981 4650 3219 4556 
z
" transform="scale(0.015625)"/>
      <path id="DejaVuSansMono-Bold-2e" d="M 1403 1147 
L 2444 1147 
L 2444 0 
L 1403 0 
L 1403 1147 
z
" transform="scale(0.015625)"/>
      <path id="DejaVuSansMono-Bold-32" d="M 1356 813 
L 3322 813 
L 3322 0 
L 359 0 
L 359 788 
L 859 1319 
Q 1750 2266 1941 2484 
Q 2175 2753 2278 2961 
Q 2381 3169 2381 3372 
Q 2381 3684 2192 3854 
Q 2003 4025 1656 4025 
Q 1409 4025 1101 3926 
Q 794 3828 459 3641 
L 459 4500 
Q 794 4622 1114 4686 
Q 1434 4750 1728 4750 
Q 2469 4750 2892 4404 
Q 3316 4059 3316 3463 
Q 3316 3188 3223 2947 
Q 3131 2706 2906 2413 
Q 2741 2200 1997 1456 
Q 1594 1053 1356 813 
z
" transform="scale(0.015625)"/>
      <path id="DejaVuSansMono-Bold-20" transform="scale(0.015625)"/>
      <path id="DejaVuSansMono-Bold-49" d="M 538 3853 
L 538 4666 
L 3316 4666 
L 3316 3853 
L 2388 3853 
L 2388 813 
L 3316 813 
L 3316 0 
L 538 0 
L 538 813 
L 1466 813 
L 1466 3853 
L 538 3853 
z
" transform="scale(0.015625)"/>
      <path id="DejaVuSansMono-Bold-4e" d="M 372 4666 
L 1363 4666 
L 2663 1275 
L 2663 4666 
L 3475 4666 
L 3475 0 
L 2491 0 
L 1184 3391 
L 1184 0 
L 372 0 
L 372 4666 
z
" transform="scale(0.015625)"/>
      <path id="DejaVuSansMono-Bold-54" d="M 2388 0 
L 1466 0 
L 1466 3859 
L 281 3859 
L 281 4666 
L 3572 4666 
L 3572 3859 
L 2388 3859 
L 2388 0 
z
" transform="scale(0.015625)"/>
      <path id="DejaVuSansMono-Bold-45" d="M 3431 0 
L 525 0 
L 525 4666 
L 3431 4666 
L 3431 3853 
L 1447 3853 
L 1447 2847 
L 3244 2847 
L 3244 2034 
L 1447 2034 
L 1447 813 
L 3431 813 
L 3431 0 
z
" transform="scale(0.015625)"/>
      <path id="DejaVuSansMono-Bold-52" d="M 2522 2203 
Q 2659 2175 2761 2073 
Q 2863 1972 3009 1678 
L 3853 0 
L 2841 0 
L 2278 1178 
Q 2253 1228 2213 1316 
Q 1966 1844 1631 1844 
L 1338 1844 
L 1338 0 
L 416 0 
L 416 4666 
L 1747 4666 
Q 2647 4666 3039 4347 
Q 3431 4028 3431 3309 
Q 3431 2828 3197 2543 
Q 2963 2259 2522 2203 
z
M 1338 3891 
L 1338 2619 
L 1772 2619 
Q 2150 2619 2314 2767 
Q 2478 2916 2478 3256 
Q 2478 3597 2315 3744 
Q 2153 3891 1772 3891 
L 1338 3891 
z
" transform="scale(0.015625)"/>
      <path id="DejaVuSansMono-Bold-41" d="M 1925 3822 
L 1491 1913 
L 2363 1913 
L 1925 3822 
z
M 1363 4666 
L 2491 4666 
L 3750 0 
L 2828 0 
L 2541 1153 
L 1306 1153 
L 1025 0 
L 103 0 
L 1363 4666 
z
" transform="scale(0.015625)"/>
      <path id="DejaVuSansMono-Bold-4c" d="M 703 0 
L 703 4666 
L 1625 4666 
L 1625 813 
L 3597 813 
L 3597 0 
L 703 0 
z
" transform="scale(0.015625)"/>
      <path id="DejaVuSansMono-Bold-53" d="M 1594 2047 
Q 897 2313 650 2605 
Q 403 2897 403 3391 
Q 403 4025 809 4387 
Q 1216 4750 1925 4750 
Q 2247 4750 2569 4676 
Q 2891 4603 3206 4459 
L 3206 3559 
Q 2909 3769 2603 3878 
Q 2297 3988 1997 3988 
Q 1663 3988 1484 3853 
Q 1306 3719 1306 3469 
Q 1306 3275 1436 3148 
Q 1566 3022 1978 2869 
L 2375 2719 
Q 2938 2513 3203 2172 
Q 3469 1831 3469 1313 
Q 3469 606 3051 257 
Q 2634 -91 1791 -91 
Q 1444 -91 1095 -8 
Q 747 75 422 238 
L 422 1191 
Q 791 928 1136 800 
Q 1481 672 1819 672 
Q 2159 672 2346 826 
Q 2534 981 2534 1259 
Q 2534 1469 2409 1626 
Q 2284 1784 2047 1875 
L 1594 2047 
z
" transform="scale(0.015625)"/>
      <path id="DejaVuSansMono-Bold-2014" d="M 0 2156 
L 3853 2156 
L 3853 1388 
L 0 1388 
L 0 2156 
z
" transform="scale(0.015625)"/>
      <path id="DejaVuSansMono-Bold-31" d="M 588 813 
L 1619 813 
L 1619 3841 
L 659 3603 
L 659 4434 
L 1625 4666 
L 2516 4666 
L 2516 813 
L 3547 813 
L 3547 0 
L 588 0 
L 588 813 
z
" transform="scale(0.015625)"/>
      <path id="DejaVuSansMono-Bold-38" d="M 1925 2081 
Q 1616 2081 1425 1886 
Q 1234 1691 1234 1369 
Q 1234 1047 1425 850 
Q 1616 653 1925 653 
Q 2234 653 2426 853 
Q 2619 1053 2619 1369 
Q 2619 1691 2428 1886 
Q 2238 2081 1925 2081 
z
M 1241 2472 
Q 888 2594 703 2855 
Q 519 3116 519 3494 
Q 519 4075 897 4412 
Q 1275 4750 1925 4750 
Q 2578 4750 2956 4412 
Q 3334 4075 3334 3494 
Q 3334 3119 3153 2858 
Q 2972 2597 2625 2472 
Q 3013 2353 3231 2047 
Q 3450 1741 3450 1313 
Q 3450 641 3053 275 
Q 2656 -91 1925 -91 
Q 1197 -91 800 275 
Q 403 641 403 1313 
Q 403 1744 625 2050 
Q 847 2356 1241 2472 
z
M 1338 3419 
Q 1338 3144 1495 2983 
Q 1653 2822 1925 2822 
Q 2200 2822 2358 2983 
Q 2516 3144 2516 3419 
Q 2516 3691 2358 3848 
Q 2200 4006 1925 4006 
Q 1656 4006 1497 3847 
Q 1338 3688 1338 3419 
z
" transform="scale(0.015625)"/>
      <path id="DejaVuSansMono-Bold-6b" d="M 544 4863 
L 1459 4863 
L 1459 2309 
L 2559 3500 
L 3669 3500 
L 2344 2194 
L 3744 0 
L 2731 0 
L 1772 1638 
L 1459 1338 
L 1459 0 
L 544 0 
L 544 4863 
z
" transform="scale(0.015625)"/>
      <path id="DejaVuSansMono-Bold-6d" d="M 2156 3150 
Q 2259 3372 2418 3478 
Q 2578 3584 2809 3584 
Q 3263 3584 3436 3271 
Q 3609 2959 3609 1972 
L 3609 0 
L 2859 0 
L 2859 2247 
Q 2859 2638 2800 2769 
Q 2741 2900 2584 2900 
Q 2428 2900 2365 2765 
Q 2303 2631 2303 2247 
L 2303 0 
L 1563 0 
L 1563 2247 
Q 1563 2631 1500 2765 
Q 1438 2900 1281 2900 
Q 1125 2900 1065 2769 
Q 1006 2638 1006 2247 
L 1006 0 
L 256 0 
L 256 3500 
L 922 3500 
L 922 3138 
Q 1000 3344 1172 3464 
Q 1344 3584 1556 3584 
Q 1769 3584 1944 3457 
Q 2119 3331 2156 3150 
z
" transform="scale(0.015625)"/>
      <path id="DejaVuSansMono-Bold-47" d="M 2725 844 
L 2725 1734 
L 2094 1734 
L 2094 2509 
L 3531 2509 
L 3531 372 
Q 3266 144 2945 26 
Q 2625 -91 2259 -91 
Q 1353 -91 859 539 
Q 366 1169 366 2328 
Q 366 3506 864 4128 
Q 1363 4750 2303 4750 
Q 2584 4750 2856 4670 
Q 3128 4591 3366 4441 
L 3366 3419 
Q 3172 3669 2920 3795 
Q 2669 3922 2369 3922 
Q 1844 3922 1584 3526 
Q 1325 3131 1325 2328 
Q 1325 1550 1575 1144 
Q 1825 738 2303 738 
Q 2447 738 2553 764 
Q 2659 791 2725 844 
z
" transform="scale(0.015625)"/>
      <path id="DejaVuSansMono-Bold-43" d="M 3378 134 
Q 3159 22 2918 -34 
Q 2678 -91 2413 -91 
Q 1469 -91 972 531 
Q 475 1153 475 2328 
Q 475 3506 972 4128 
Q 1469 4750 2413 4750 
Q 2678 4750 2922 4694 
Q 3166 4638 3378 4525 
L 3378 3500 
Q 3141 3719 2917 3820 
Q 2694 3922 2456 3922 
Q 1950 3922 1692 3520 
Q 1434 3119 1434 2328 
Q 1434 1541 1692 1139 
Q 1950 738 2456 738 
Q 2694 738 2917 839 
Q 3141 941 3378 1159 
L 3378 134 
z
" transform="scale(0.015625)"/>
     </defs>
     <use xlink:href="#DejaVuSansMono-Bold-46"/>
     <use xlink:href="#DejaVuSansMono-Bold-2d" transform="translate(60.205078 0)"/>
     <use xlink:href="#DejaVuSansMono-Bold-36" transform="translate(120.410156 0)"/>
     <use xlink:href="#DejaVuSansMono-Bold-2e" transform="translate(180.615234 0)"/>
     <use xlink:href="#DejaVuSansMono-Bold-32" transform="translate(240.820312 0)"/>
     <use xlink:href="#DejaVuSansMono-Bold-20" transform="translate(301.025391 0)"/>
     <use xlink:href="#DejaVuSansMono-Bold-20" transform="translate(361.230469 0)"/>
     <use xlink:href="#DejaVuSansMono-Bold-49" transform="translate(421.435547 0)"/>
     <use xlink:href="#DejaVuSansMono-Bold-4e" transform="translate(481.640625 0)"/>
     <use xlink:href="#DejaVuSansMono-Bold-54" transform="translate(541.845703 0)"/>
     <use xlink:href="#DejaVuSansMono-Bold-45" transform="translate(602.050781 0)"/>
     <use xlink:href="#DejaVuSansMono-Bold-52" transform="translate(662.255859 0)"/>
     <use xlink:href="#DejaVuSansMono-Bold-4e" transform="translate(722.460938 0)"/>
     <use xlink:href="#DejaVuSansMono-Bold-41" transform="translate(782.666016 0)"/>
     <use xlink:href="#DejaVuSansMono-Bold-4c" transform="translate(842.871094 0)"/>
     <use xlink:href="#DejaVuSansMono-Bold-20" transform="translate(903.076172 0)"/>
     <use xlink:href="#DejaVuSansMono-Bold-54" transform="translate(963.28125 0)"/>
     <use xlink:href="#DejaVuSansMono-Bold-52" transform="translate(1023.486328 0)"/>
     <use xlink:href="#DejaVuSansMono-Bold-41" transform="translate(1083.691406 0)"/>
     <use xlink:href="#DejaVuSansMono-Bold-4e" transform="translate(1143.896484 0)"/>
     <use xlink:href="#DejaVuSansMono-Bold-53" transform="translate(1204.101562 0)"/>
     <use xlink:href="#DejaVuSansMono-Bold-49" transform="translate(1264.306641 0)"/>
     <use xlink:href="#DejaVuSansMono-Bold-54" transform="translate(1324.511719 0)"/>
     <use xlink:href="#DejaVuSansMono-Bold-20" transform="translate(1384.716797 0)"/>
     <use xlink:href="#DejaVuSansMono-Bold-2014" transform="translate(1444.921875 0)"/>
     <use xlink:href="#DejaVuSansMono-Bold-20" transform="translate(1505.126953 0)"/>
     <use xlink:href="#DejaVuSansMono-Bold-31" transform="translate(1565.332031 0)"/>
     <use xlink:href="#DejaVuSansMono-Bold-38" transform="translate(1625.537109 0)"/>
     <use xlink:href="#DejaVuSansMono-Bold-38" transform="translate(1685.742188 0)"/>
     <use xlink:href="#DejaVuSansMono-Bold-20" transform="translate(1745.947266 0)"/>
     <use xlink:href="#DejaVuSansMono-Bold-6b" transform="translate(1806.152344 0)"/>
     <use xlink:href="#DejaVuSansMono-Bold-6d" transform="translate(1866.357422 0)"/>
     <use xlink:href="#DejaVuSansMono-Bold-20" transform="translate(1926.5625 0)"/>
     <use xlink:href="#DejaVuSansMono-Bold-47" transform="translate(1986.767578 0)"/>
     <use xlink:href="#DejaVuSansMono-Bold-52" transform="translate(2046.972656 0)"/>
     <use xlink:href="#DejaVuSansMono-Bold-45" transform="translate(2107.177734 0)"/>
     <use xlink:href="#DejaVuSansMono-Bold-41" transform="translate(2167.382812 0)"/>
     <use xlink:href="#DejaVuSansMono-Bold-54" transform="translate(2227.587891 0)"/>
     <use xlink:href="#DejaVuSansMono-Bold-2d" transform="translate(2287.792969 0)"/>
     <use xlink:href="#DejaVuSansMono-Bold-43" transform="translate(2347.998047 0)"/>
     <use xlink:href="#DejaVuSansMono-Bold-49" transform="translate(2408.203125 0)"/>
     <use xlink:href="#DejaVuSansMono-Bold-52" transform="translate(2468.408203 0)"/>
     <use xlink:href="#DejaVuSansMono-Bold-43" transform="translate(2528.613281 0)"/>
     <use xlink:href="#DejaVuSansMono-Bold-4c" transform="translate(2588.818359 0)"/>
     <use xlink:href="#DejaVuSansMono-Bold-45" transform="translate(2649.023438 0)"/>
     <use xlink:href="#DejaVuSansMono-Bold-20" transform="translate(2709.228516 0)"/>
     <use xlink:href="#DejaVuSansMono-Bold-41" transform="translate(2769.433594 0)"/>
     <use xlink:href="#DejaVuSansMono-Bold-52" transform="translate(2829.638672 0)"/>
     <use xlink:href="#DejaVuSansMono-Bold-43" transform="translate(2889.84375 0)"/>
    </g>
   </g>
  </g>
  <g id="text_15">
   <!-- F-6.2 -->
   <g style="fill: #f0e6d2" transform="translate(702.952656 333.3025) scale(0.07 -0.07)">
    <defs>
     <path id="DejaVuSansMono-46" d="M 728 4666 
L 3475 4666 
L 3475 4134 
L 1363 4134 
L 1363 2759 
L 3278 2759 
L 3278 2228 
L 1363 2228 
L 1363 0 
L 728 0 
L 728 4666 
z
" transform="scale(0.015625)"/>
    </defs>
    <use xlink:href="#DejaVuSansMono-46"/>
    <use xlink:href="#DejaVuSansMono-2d" transform="translate(60.205078 0)"/>
    <use xlink:href="#DejaVuSansMono-36" transform="translate(120.410156 0)"/>
    <use xlink:href="#DejaVuSansMono-2e" transform="translate(180.615234 0)"/>
    <use xlink:href="#DejaVuSansMono-32" transform="translate(240.820312 0)"/>
   </g>
  </g>
 </g>
 <defs>
  <clipPath id="p78c288cac4">
   <rect x="163.50375" y="21.558281" width="502.2" height="277.2"/>
  </clipPath>
 </defs>
</svg>
