<?xml version="1.0" encoding="UTF-8" standalone="no"?>
<!DOCTYPE svg PUBLIC "-//W3C//DTD SVG 1.1//EN"
 "http://www.w3.org/Graphics/SVG/1.1/DTD/svg11.dtd">
<!-- Generated by graphviz version 14.1.5 (20260411.2331)
 -->
<!-- Title: yavin_fault Pages: 1 -->
<svg width="695pt" height="358pt"
 viewBox="0.00 0.00 695.00 358.00" xmlns="http://www.w3.org/2000/svg" xmlns:xlink="http://www.w3.org/1999/xlink">
<g id="graph0" class="graph" transform="scale(1 1) rotate(0) translate(4 354)">
<title>yavin_fault</title>
<polygon fill="#0a0e1a" stroke="none" points="-4,4 -4,-354 690.88,-354 690.88,4 -4,4"/>
<!-- LOSS -->
<g id="node1" class="node">
<title>LOSS</title>
<polygon fill="#e74c3c" stroke="#f5a623" points="361.12,-350 246.12,-350 246.12,-312 361.12,-312 361.12,-350"/>
<text xml:space="preserve" text-anchor="middle" x="303.62" y="-332.7" font-family="JetBrains Mono" font-size="14.00" fill="#0a0e1a">STATION LOSS</text>
<text xml:space="preserve" text-anchor="middle" x="303.62" y="-317.7" font-family="JetBrains Mono" font-size="14.00" fill="#0a0e1a">(Battle of Yavin)</text>
</g>
<!-- RXN -->
<g id="node2" class="node">
<title>RXN</title>
<polygon fill="#0a0e1a" stroke="#f5a623" points="362.62,-275 244.62,-275 244.62,-237 362.62,-237 362.62,-275"/>
<text xml:space="preserve" text-anchor="middle" x="303.62" y="-257.7" font-family="JetBrains Mono" font-size="14.00" fill="#f0e6d2">Reactor runaway</text>
<text xml:space="preserve" text-anchor="middle" x="303.62" y="-242.7" font-family="JetBrains Mono" font-size="14.00" fill="#f0e6d2">(chain reaction)</text>
</g>
<!-- RXN&#45;&gt;LOSS -->
<g id="edge1" class="edge">
<title>RXN&#45;&gt;LOSS</title>
<path fill="none" stroke="#f5a623" d="M303.62,-275.42C303.62,-282.94 303.62,-291.83 303.62,-300.23"/>
<polygon fill="#f5a623" stroke="#f5a623" points="300.13,-300.07 303.63,-310.07 307.13,-300.07 300.13,-300.07"/>
</g>
<!-- ING -->
<g id="node3" class="node">
<title>ING</title>
<polygon fill="#0a0e1a" stroke="#f5a623" points="382.12,-200 225.12,-200 225.12,-164 382.12,-164 382.12,-200"/>
<text xml:space="preserve" text-anchor="middle" x="303.62" y="-176.2" font-family="JetBrains Mono" font-size="14.00" fill="#f0e6d2">Torpedo ingress to core</text>
</g>
<!-- ING&#45;&gt;RXN -->
<g id="edge2" class="edge">
<title>ING&#45;&gt;RXN</title>
<path fill="none" stroke="#f5a623" d="M303.62,-200.43C303.62,-207.9 303.62,-216.83 303.62,-225.29"/>
<polygon fill="#f5a623" stroke="#f5a623" points="300.13,-225.21 303.63,-235.21 307.13,-225.21 300.13,-225.21"/>
</g>
<!-- SPF -->
<g id="node4" class="node">
<title>SPF</title>
<polygon fill="#0a0e1a" stroke="#f5a623" points="195.25,-113 0,-113 0,-75 195.25,-75 195.25,-113"/>
<text xml:space="preserve" text-anchor="middle" x="97.62" y="-95.7" font-family="JetBrains Mono" font-size="14.00" fill="#f0e6d2">Single LOS duct to reactor</text>
<text xml:space="preserve" text-anchor="middle" x="97.62" y="-80.7" font-family="JetBrains Mono" font-size="14.00" fill="#f0e6d2">(design flaw + Erso sabotage)</text>
</g>
<!-- SPF&#45;&gt;ING -->
<g id="edge3" class="edge">
<title>SPF&#45;&gt;ING</title>
<path fill="none" stroke="#f5a623" d="M141.82,-113.45C173.93,-126.85 217.5,-145.05 251.35,-159.17"/>
<polygon fill="#f5a623" stroke="#f5a623" points="249.99,-162.4 260.57,-163.02 252.69,-155.94 249.99,-162.4"/>
</g>
<!-- SHD -->
<g id="node5" class="node">
<title>SHD</title>
<polygon fill="#0a0e1a" stroke="#f5a623" points="394.12,-112 213.12,-112 213.12,-76 394.12,-76 394.12,-112"/>
<text xml:space="preserve" text-anchor="middle" x="303.62" y="-88.2" font-family="JetBrains Mono" font-size="14.00" fill="#f0e6d2">Ray&#45;only shield on aperture</text>
</g>
<!-- SHD&#45;&gt;ING -->
<g id="edge4" class="edge">
<title>SHD&#45;&gt;ING</title>
<path fill="none" stroke="#f5a623" d="M303.62,-112.4C303.62,-123.83 303.62,-139.04 303.62,-152.24"/>
<polygon fill="#f5a623" stroke="#f5a623" points="300.13,-152.11 303.63,-162.11 307.13,-152.11 300.13,-152.11"/>
</g>
<!-- SLW -->
<g id="node6" class="node">
<title>SLW</title>
<polygon fill="#0a0e1a" stroke="#f5a623" points="569.5,-113 411.75,-113 411.75,-75 569.5,-75 569.5,-113"/>
<text xml:space="preserve" text-anchor="middle" x="490.62" y="-95.7" font-family="JetBrains Mono" font-size="14.00" fill="#f0e6d2">Turbolasers too slow</text>
<text xml:space="preserve" text-anchor="middle" x="490.62" y="-80.7" font-family="JetBrains Mono" font-size="14.00" fill="#f0e6d2">for X&#45;wing&#45;scale targets</text>
</g>
<!-- SLW&#45;&gt;ING -->
<g id="edge5" class="edge">
<title>SLW&#45;&gt;ING</title>
<path fill="none" stroke="#f5a623" d="M450.51,-113.45C421.61,-126.74 382.49,-144.73 351.88,-158.81"/>
<polygon fill="#f5a623" stroke="#f5a623" points="350.44,-155.62 342.82,-162.98 353.37,-161.98 350.44,-155.62"/>
<text xml:space="preserve" text-anchor="middle" x="463.07" y="-132.7" font-family="JetBrains Mono" font-size="14.00" fill="#4ec9b0">permits trench run</text>
</g>
<!-- FFL -->
<g id="node7" class="node">
<title>FFL</title>
<polygon fill="#0a0e1a" stroke="#f5a623" points="468.75,-38 318.5,-38 318.5,0 468.75,0 468.75,-38"/>
<text xml:space="preserve" text-anchor="middle" x="393.62" y="-20.7" font-family="JetBrains Mono" font-size="14.00" fill="#f0e6d2">Friendly&#45;fire lockout</text>
<text xml:space="preserve" text-anchor="middle" x="393.62" y="-5.7" font-family="JetBrains Mono" font-size="14.00" fill="#f0e6d2">creates shadow zones</text>
</g>
<!-- FFL&#45;&gt;SLW -->
<g id="edge6" class="edge">
<title>FFL&#45;&gt;SLW</title>
<path fill="none" stroke="#f5a623" d="M418.1,-38.42C429.93,-47.33 444.32,-58.15 457.15,-67.81"/>
<polygon fill="#f5a623" stroke="#f5a623" points="454.85,-70.46 464.95,-73.67 459.06,-64.87 454.85,-70.46"/>
</g>
<!-- CAP -->
<g id="node8" class="node">
<title>CAP</title>
<polygon fill="#0a0e1a" stroke="#f5a623" points="686.88,-38 486.38,-38 486.38,0 686.88,0 686.88,-38"/>
<text xml:space="preserve" text-anchor="middle" x="586.62" y="-20.7" font-family="JetBrains Mono" font-size="14.00" fill="#f0e6d2">Inadequate standing CAP</text>
<text xml:space="preserve" text-anchor="middle" x="586.62" y="-5.7" font-family="JetBrains Mono" font-size="14.00" fill="#f0e6d2">(1 sqn launched of 7,000 TIEs)</text>
</g>
<!-- CAP&#45;&gt;SLW -->
<g id="edge7" class="edge">
<title>CAP&#45;&gt;SLW</title>
<path fill="none" stroke="#f5a623" d="M562.4,-38.42C550.69,-47.33 536.45,-58.15 523.76,-67.81"/>
<polygon fill="#f5a623" stroke="#f5a623" points="521.89,-64.83 516.05,-73.67 526.13,-70.4 521.89,-64.83"/>
</g>
</g>
</svg>
