<?xml version="1.0" encoding="UTF-8" standalone="no"?>
<!DOCTYPE svg PUBLIC "-//W3C//DTD SVG 1.1//EN"
 "http://www.w3.org/Graphics/SVG/1.1/DTD/svg11.dtd">
<!-- Generated by graphviz version 14.1.5 (20260411.2331)
 -->
<!-- Title: endor_fault Pages: 1 -->
<svg width="233pt" height="412pt"
 viewBox="0.00 0.00 233.00 412.00" xmlns="http://www.w3.org/2000/svg" xmlns:xlink="http://www.w3.org/1999/xlink">
<g id="graph0" class="graph" transform="scale(1 1) rotate(0) translate(4 408)">
<title>endor_fault</title>
<polygon fill="#0a0e1a" stroke="none" points="-4,4 -4,-408 229.25,-408 229.25,4 -4,4"/>
<!-- LOSS -->
<g id="node1" class="node">
<title>LOSS</title>
<polygon fill="#e74c3c" stroke="#f5a623" points="170.12,-404 55.12,-404 55.12,-366 170.12,-366 170.12,-404"/>
<text xml:space="preserve" text-anchor="middle" x="112.62" y="-386.7" font-family="JetBrains Mono" font-size="14.00" fill="#0a0e1a">STATION LOSS</text>
<text xml:space="preserve" text-anchor="middle" x="112.62" y="-371.7" font-family="JetBrains Mono" font-size="14.00" fill="#0a0e1a">(Battle of Endor)</text>
</g>
<!-- RXN -->
<g id="node2" class="node">
<title>RXN</title>
<polygon fill="#0a0e1a" stroke="#f5a623" points="202,-330 23.25,-330 23.25,-292 202,-292 202,-330"/>
<text xml:space="preserve" text-anchor="middle" x="112.62" y="-312.7" font-family="JetBrains Mono" font-size="14.00" fill="#f0e6d2">Reactor&#45;tower regulator</text>
<text xml:space="preserve" text-anchor="middle" x="112.62" y="-297.7" font-family="JetBrains Mono" font-size="14.00" fill="#f0e6d2">destroyed by Lando/Falcon</text>
</g>
<!-- RXN&#45;&gt;LOSS -->
<g id="edge1" class="edge">
<title>RXN&#45;&gt;LOSS</title>
<path fill="none" stroke="#f5a623" d="M112.62,-330.17C112.62,-337.45 112.62,-346.02 112.62,-354.17"/>
<polygon fill="#f5a623" stroke="#f5a623" points="109.13,-354.07 112.63,-364.07 116.13,-354.07 109.13,-354.07"/>
</g>
<!-- COR -->
<g id="node3" class="node">
<title>COR</title>
<polygon fill="#0a0e1a" stroke="#f5a623" points="184.38,-256 40.88,-256 40.88,-218 184.38,-218 184.38,-256"/>
<text xml:space="preserve" text-anchor="middle" x="112.62" y="-238.7" font-family="JetBrains Mono" font-size="14.00" fill="#f0e6d2">Flight corridor to core</text>
<text xml:space="preserve" text-anchor="middle" x="112.62" y="-223.7" font-family="JetBrains Mono" font-size="14.00" fill="#f0e6d2">(unfinished hull)</text>
</g>
<!-- COR&#45;&gt;RXN -->
<g id="edge2" class="edge">
<title>COR&#45;&gt;RXN</title>
<path fill="none" stroke="#f5a623" d="M112.62,-256.17C112.62,-263.45 112.62,-272.02 112.62,-280.17"/>
<polygon fill="#f5a623" stroke="#f5a623" points="109.13,-280.07 112.63,-290.07 116.13,-280.07 109.13,-280.07"/>
</g>
<!-- SHD -->
<g id="node4" class="node">
<title>SHD</title>
<polygon fill="#0a0e1a" stroke="#f5a623" points="186.62,-182 38.62,-182 38.62,-146 186.62,-146 186.62,-182"/>
<text xml:space="preserve" text-anchor="middle" x="112.62" y="-158.2" font-family="JetBrains Mono" font-size="14.00" fill="#f0e6d2">Planetary shield down</text>
</g>
<!-- SHD&#45;&gt;COR -->
<g id="edge3" class="edge">
<title>SHD&#45;&gt;COR</title>
<path fill="none" stroke="#f5a623" d="M112.62,-182.19C112.62,-189.41 112.62,-198.03 112.62,-206.23"/>
<polygon fill="#f5a623" stroke="#f5a623" points="109.13,-206.22 112.63,-216.22 116.13,-206.22 109.13,-206.22"/>
</g>
<!-- SPF -->
<g id="node5" class="node">
<title>SPF</title>
<polygon fill="#0a0e1a" stroke="#f5a623" points="214.75,-110 10.5,-110 10.5,-72 214.75,-72 214.75,-110"/>
<text xml:space="preserve" text-anchor="middle" x="112.62" y="-92.7" font-family="JetBrains Mono" font-size="14.00" fill="#f0e6d2">Single Endor SLD&#45;26 generator</text>
<text xml:space="preserve" text-anchor="middle" x="112.62" y="-77.7" font-family="JetBrains Mono" font-size="14.00" fill="#f0e6d2">(single point of failure)</text>
</g>
<!-- SPF&#45;&gt;SHD -->
<g id="edge4" class="edge">
<title>SPF&#45;&gt;SHD</title>
<path fill="none" stroke="#f5a623" d="M112.62,-110.28C112.62,-117.57 112.62,-126.14 112.62,-134.22"/>
<polygon fill="#f5a623" stroke="#f5a623" points="109.13,-134 112.63,-144 116.13,-134 109.13,-134"/>
</g>
<!-- GND -->
<g id="node6" class="node">
<title>GND</title>
<polygon fill="#0a0e1a" stroke="#f5a623" points="225.25,-36 0,-36 0,0 225.25,0 225.25,-36"/>
<text xml:space="preserve" text-anchor="middle" x="112.62" y="-12.2" font-family="JetBrains Mono" font-size="14.00" fill="#f0e6d2">Ground assault captures generator</text>
</g>
<!-- GND&#45;&gt;SPF -->
<g id="edge5" class="edge">
<title>GND&#45;&gt;SPF</title>
<path fill="none" stroke="#f5a623" d="M112.62,-36.19C112.62,-43.41 112.62,-52.03 112.62,-60.23"/>
<polygon fill="#f5a623" stroke="#f5a623" points="109.13,-60.22 112.63,-70.22 116.13,-60.22 109.13,-60.22"/>
</g>
</g>
</svg>
